<svg width="182" height="39" viewBox="0 0 182 39" fill="none" xmlns="http://www.w3.org/2000/svg">
<path d="M181.5 22.9721V0.5L15.8224 0.5C15.1806 0.5 14.3804 0.689541 13.6071 1.01389C12.834 1.33818 12.1358 1.77713 11.682 2.23667L2.21748 11.8216C1.76241 12.2825 1.3284 12.9903 1.00797 13.7745C0.687637 14.5585 0.500046 15.3717 0.500046 16.0274V38.5L166.177 38.5C166.818 38.5 167.619 38.3105 168.392 37.9861C169.165 37.6618 169.863 37.2229 170.317 36.7633L179.782 27.1784L179.782 27.1784L179.782 27.1779C179.782 27.1779 179.782 27.1778 179.782 27.1778C180.237 26.7169 180.671 26.0092 180.992 25.225C181.312 24.441 181.5 23.6278 181.5 22.9721Z" fill="#002C45" stroke="#0A5688"/>
</svg>
