<svg width="260" height="38" viewBox="0 0 260 38" fill="none" xmlns="http://www.w3.org/2000/svg">
<path d="M37.838 8.1H52.094V9.99H46.1V27H43.832V9.99H37.838V8.1ZM66.7442 25.11V27H54.6482V8.1H66.7442V9.99H56.9162V16.47H65.2322V18.36H56.9162V25.11H66.7442ZM72.4155 25.11H82.7295V27H69.9855V25.002L79.6245 10.557C79.8405 10.323 80.0295 10.179 80.1915 10.125V9.99H70.0395V8.1H82.6755V10.152L72.9825 24.543C72.8205 24.777 72.6315 24.921 72.4155 24.975V25.11ZM89.2236 8.1H99.1056C99.5376 8.1 99.9696 8.28 100.402 8.64L101.05 9.18C101.482 9.54 101.698 9.99 101.698 10.53V24.57C101.698 25.11 101.482 25.56 101.05 25.92L100.402 26.46C99.9696 26.82 99.5376 27 99.1056 27H89.2236C88.7916 27 88.3596 26.82 87.9276 26.46L87.2796 25.92C86.8476 25.56 86.6316 25.11 86.6316 24.57V10.53C86.6316 9.99 86.8476 9.54 87.2796 9.18L87.9276 8.64C88.3596 8.28 88.7916 8.1 89.2236 8.1ZM99.4296 24.003V11.097C99.4296 10.827 99.4116 10.656 99.3756 10.584C99.3576 10.494 99.2676 10.386 99.1056 10.26C98.9436 10.134 98.8176 10.062 98.7276 10.044C98.6376 10.008 98.4306 9.99 98.1066 9.99H90.2226C89.8986 9.99 89.6916 10.008 89.6016 10.044C89.5116 10.062 89.3856 10.134 89.2236 10.26C89.0616 10.386 88.9626 10.494 88.9266 10.584C88.9086 10.656 88.8996 10.827 88.8996 11.097V24.003C88.8996 24.273 88.9086 24.453 88.9266 24.543C88.9626 24.615 89.0616 24.714 89.2236 24.84C89.3856 24.966 89.5116 25.047 89.6016 25.083C89.6916 25.101 89.8986 25.11 90.2226 25.11H98.1066C98.4306 25.11 98.6376 25.101 98.7276 25.083C98.8176 25.047 98.9436 24.966 99.1056 24.84C99.2676 24.714 99.3576 24.615 99.3756 24.543C99.4116 24.453 99.4296 24.273 99.4296 24.003ZM115.733 18.36H109.28C108.848 18.36 108.416 18.18 107.984 17.82L107.255 17.199C106.877 16.893 106.688 16.533 106.688 16.119V10.53C106.688 9.99 106.904 9.54 107.336 9.18L107.984 8.64C108.416 8.28 108.848 8.1 109.28 8.1H116.462C116.894 8.1 117.326 8.28 117.758 8.64L118.406 9.18C118.838 9.54 119.054 9.99 119.054 10.53V11.61H116.786V11.097C116.786 10.827 116.768 10.656 116.732 10.584C116.714 10.494 116.624 10.386 116.462 10.26C116.3 10.134 116.174 10.062 116.084 10.044C115.994 10.008 115.787 9.99 115.463 9.99H110.279C109.955 9.99 109.748 10.008 109.658 10.044C109.568 10.062 109.442 10.134 109.28 10.26C109.118 10.386 109.019 10.494 108.983 10.584C108.965 10.656 108.956 10.827 108.956 11.097V15.363C108.956 15.633 108.965 15.813 108.983 15.903C109.019 15.975 109.118 16.074 109.28 16.2C109.442 16.326 109.568 16.407 109.658 16.443C109.748 16.461 109.955 16.47 110.279 16.47H116.732C117.164 16.47 117.596 16.65 118.028 17.01L118.676 17.55C119.108 17.91 119.324 18.36 119.324 18.9V24.57C119.324 25.11 119.108 25.56 118.676 25.92L118.028 26.46C117.596 26.82 117.164 27 116.732 27H109.01C108.578 27 108.146 26.82 107.714 26.46L107.066 25.92C106.634 25.56 106.418 25.11 106.418 24.57V23.49H108.686V24.003C108.686 24.273 108.695 24.453 108.713 24.543C108.749 24.615 108.848 24.714 109.01 24.84C109.172 24.966 109.298 25.047 109.388 25.083C109.478 25.101 109.685 25.11 110.009 25.11H115.733C116.057 25.11 116.264 25.101 116.354 25.083C116.444 25.047 116.57 24.966 116.732 24.84C116.894 24.714 116.984 24.615 117.002 24.543C117.038 24.453 117.056 24.273 117.056 24.003V19.467C117.056 19.197 117.038 19.026 117.002 18.954C116.984 18.864 116.894 18.756 116.732 18.63C116.57 18.504 116.444 18.432 116.354 18.414C116.264 18.378 116.057 18.36 115.733 18.36ZM129.447 27L135.927 8.1H139.113L145.728 27H143.46L142.056 23.085H133.065L131.715 27H129.447ZM137.574 9.72H137.466C137.466 9.936 137.403 10.197 137.277 10.503L133.632 21.33H141.489L137.763 10.503C137.637 10.197 137.574 9.936 137.574 9.72ZM163.659 11.61H161.391V11.097C161.391 10.827 161.373 10.656 161.337 10.584C161.319 10.494 161.229 10.386 161.067 10.26C160.905 10.134 160.779 10.062 160.689 10.044C160.599 10.008 160.392 9.99 160.068 9.99H153.372C153.048 9.99 152.841 10.008 152.751 10.044C152.661 10.062 152.535 10.134 152.373 10.26C152.211 10.386 152.112 10.494 152.076 10.584C152.058 10.656 152.049 10.827 152.049 11.097V24.003C152.049 24.273 152.058 24.453 152.076 24.543C152.112 24.615 152.211 24.714 152.373 24.84C152.535 24.966 152.661 25.047 152.751 25.083C152.841 25.101 153.048 25.11 153.372 25.11H160.068C160.392 25.11 160.599 25.101 160.689 25.083C160.779 25.047 160.905 24.966 161.067 24.84C161.229 24.714 161.319 24.615 161.337 24.543C161.373 24.453 161.391 24.273 161.391 24.003V23.49H163.659V24.57C163.659 25.11 163.443 25.56 163.011 25.92L162.363 26.46C161.931 26.82 161.499 27 161.067 27H152.373C151.941 27 151.509 26.82 151.077 26.46L150.429 25.92C149.997 25.56 149.781 25.11 149.781 24.57V10.53C149.781 9.99 149.997 9.54 150.429 9.18L151.077 8.64C151.509 8.28 151.941 8.1 152.373 8.1H161.067C161.499 8.1 161.931 8.28 162.363 8.64L163.011 9.18C163.443 9.54 163.659 9.99 163.659 10.53V11.61ZM166.334 27L172.814 8.1H176L182.615 27H180.347L178.943 23.085H169.952L168.602 27H166.334ZM174.461 9.72H174.353C174.353 9.936 174.29 10.197 174.164 10.503L170.519 21.33H178.376L174.65 10.503C174.524 10.197 174.461 9.936 174.461 9.72ZM186.669 27V8.1H196.659C197.127 8.1 197.559 8.28 197.955 8.64L200.547 10.8C200.979 11.16 201.195 11.52 201.195 11.88V23.22C201.195 23.58 200.979 23.94 200.547 24.3L197.955 26.46C197.559 26.82 197.127 27 196.659 27H186.669ZM198.927 22.41V12.69C198.927 12.33 198.711 11.97 198.279 11.61L196.983 10.53C196.587 10.17 196.155 9.99 195.687 9.99H188.937V25.11H195.687C196.155 25.11 196.587 24.93 196.983 24.57L198.279 23.49C198.711 23.13 198.927 22.77 198.927 22.41ZM218.013 25.11V27H205.917V8.1H218.013V9.99H208.185V16.47H216.501V18.36H208.185V25.11H218.013ZM224.899 9.72L224.818 9.747C224.944 10.179 225.007 10.611 225.007 11.043V27H222.739V8.1H226.411L232.189 23.193C232.297 23.499 232.351 23.751 232.351 23.949H232.459C232.459 23.751 232.513 23.499 232.621 23.193L238.426 8.1H242.071V27H239.803V11.043C239.803 10.611 239.866 10.179 239.992 9.747L239.911 9.72L233.269 27H231.541C230.713 24.966 229.921 22.995 229.165 21.087C228.427 19.179 227.815 17.586 227.329 16.308C226.843 15.012 226.42 13.878 226.06 12.906C225.7 11.916 225.421 11.151 225.223 10.611C225.025 10.071 224.917 9.774 224.899 9.72ZM252.547 16.362L256.894 8.1H259.486L253.276 19.116V27H251.008V19.116L244.798 8.1H247.39L251.737 16.362C251.953 16.74 252.07 17.019 252.088 17.199H252.196C252.214 17.091 252.331 16.812 252.547 16.362Z" fill="#DCF8FF"/>
<path d="M14.922 9.18545L14.5001 8.52174L14.0781 9.18545L5.73556 22.3081H0.910356L14.5 0.931966L28.0896 22.3081H23.2646L14.922 9.18545ZM14.5 33.4373L2.05802 27.0124H6.00995H6.06709L6.12275 26.9995L14.4999 25.0595L22.877 26.9995L22.9326 27.0124H22.9898H26.942L14.5 33.4373Z" fill="#002C45" fill-opacity="0.6" stroke="#0A5688"/>
</svg>
