<svg width="24" height="24" viewBox="0 0 24 24" fill="none" xmlns="http://www.w3.org/2000/svg">
<path d="M10 15C10 15 8.5 14.5 8.5 12C7.674 12 7.674 10 8.5 10C8.5 9.665 7 6 9.5 6.5C10 4.5 15.5 4.5 16 6.5C16.347 7.888 15.5 9.754 15.5 10C16.326 10 16.326 12 15.5 12C15.5 14.5 14 15 14 15V17.5C16.477 18.429 18.93 19.197 20.186 20.075C22.234 17.999 23.5 15.147 23.5 12C23.5 5.648 18.352 0.5 12 0.5C5.648 0.5 0.5 5.648 0.5 12C0.5 15.153 1.77 18.009 3.825 20.087C5.155 19.167 7.777 18.341 10 17.5V15Z" stroke="white" stroke-miterlimit="10" stroke-linejoin="round"/>
<path d="M3.8252 20.087C5.9102 22.1939 8.8022 23.4999 12.0002 23.4999C15.2032 23.4999 18.1002 22.189 20.1862 20.075" stroke="white" stroke-miterlimit="10" stroke-linejoin="round"/>
</svg>
