<svg width="211" height="34" viewBox="0 0 211 34" fill="none" xmlns="http://www.w3.org/2000/svg">
<mask id="path-1-inside-1" fill="white">
<path fill-rule="evenodd" clip-rule="evenodd" d="M105 0H8.59999C7.19999 0 6.2 0.4 5.2 1.5C4.72489 2.05895 4.23417 2.61009 3.73873 3.16651C2.46143 4.60105 1.15284 6.07074 0 7.8H1.7H19.5C20.7 7.8 21.5 8.2 22.4 9C28.8 15.3 35.3 21.5 41.8 27.6C42.4 28.2 43.5 28.6 44.4 28.6H105H105.4H166C166.9 28.6 168 28.2 168.6 27.6C175.1 21.5 181.6 15.3 188 9C188.9 8.2 189.7 7.8 190.9 7.8H208.7H210.4C209.247 6.07073 207.939 4.60105 206.661 3.1665C206.166 2.61008 205.675 2.05895 205.2 1.5C204.2 0.4 203.2 0 201.8 0H105.4H105Z"/>
</mask>
<path fill-rule="evenodd" clip-rule="evenodd" d="M105 0H8.59999C7.19999 0 6.2 0.4 5.2 1.5C4.72489 2.05895 4.23417 2.61009 3.73873 3.16651C2.46143 4.60105 1.15284 6.07074 0 7.8H1.7H19.5C20.7 7.8 21.5 8.2 22.4 9C28.8 15.3 35.3 21.5 41.8 27.6C42.4 28.2 43.5 28.6 44.4 28.6H105H105.4H166C166.9 28.6 168 28.2 168.6 27.6C175.1 21.5 181.6 15.3 188 9C188.9 8.2 189.7 7.8 190.9 7.8H208.7H210.4C209.247 6.07073 207.939 4.60105 206.661 3.1665C206.166 2.61008 205.675 2.05895 205.2 1.5C204.2 0.4 203.2 0 201.8 0H105.4H105Z" fill="black"/>
<path d="M5.2 1.5L4.46006 0.827327L4.44885 0.839657L4.43806 0.852352L5.2 1.5ZM3.73873 3.16651L4.48559 3.8315L3.73873 3.16651ZM0 7.8L-0.832051 7.2453L-1.86852 8.8H0V7.8ZM22.4 9L23.1015 8.28735L23.0834 8.2695L23.0644 8.25259L22.4 9ZM41.8 27.6L42.5071 26.8929L42.4959 26.8817L42.4843 26.8708L41.8 27.6ZM168.6 27.6L167.916 26.8708L167.904 26.8817L167.893 26.8929L168.6 27.6ZM188 9L187.336 8.25259L187.317 8.2695L187.299 8.28735L188 9ZM210.4 7.8V8.8H212.269L211.232 7.2453L210.4 7.8ZM206.661 3.1665L207.408 2.50151L207.408 2.50151L206.661 3.1665ZM205.2 1.5L205.962 0.852356L205.951 0.839658L205.94 0.827327L205.2 1.5ZM8.59999 1H105V-1H8.59999V1ZM5.93994 2.17267C6.36663 1.70331 6.75458 1.42477 7.14643 1.25556C7.53959 1.08579 7.99702 1 8.59999 1V-1C7.80296 -1 7.06039 -0.885786 6.35356 -0.580562C5.64541 -0.274773 5.03337 0.196686 4.46006 0.827327L5.93994 2.17267ZM4.48559 3.8315C4.97969 3.27656 5.47813 2.71683 5.96194 2.14765L4.43806 0.852352C3.97165 1.40106 3.48864 1.94361 2.99188 2.50152L4.48559 3.8315ZM0.832051 8.3547C1.94031 6.69231 3.20263 5.27239 4.48559 3.8315L2.99188 2.50152C1.72023 3.92972 0.365369 5.44917 -0.832051 7.2453L0.832051 8.3547ZM1.7 6.8H0V8.8H1.7V6.8ZM19.5 6.8H1.7V8.8H19.5V6.8ZM23.0644 8.25259C22.0319 7.33485 21.0051 6.8 19.5 6.8V8.8C20.3949 8.8 20.9681 9.06515 21.7356 9.74741L23.0644 8.25259ZM42.4843 26.8708C35.9881 20.7744 29.4942 14.5801 23.1015 8.28735L21.6985 9.71265C28.1058 16.0199 34.6119 22.2256 41.1157 28.3292L42.4843 26.8708ZM44.4 27.6C43.7188 27.6 42.8891 27.2749 42.5071 26.8929L41.0929 28.3071C41.9108 29.1251 43.2811 29.6 44.4 29.6V27.6ZM105 27.6H44.4V29.6H105V27.6ZM105 29.6H105.4V27.6H105V29.6ZM105.4 29.6H166V27.6H105.4V29.6ZM166 29.6C167.119 29.6 168.489 29.1251 169.307 28.3071L167.893 26.8929C167.511 27.2749 166.681 27.6 166 27.6V29.6ZM169.284 28.3292C175.788 22.2256 182.294 16.0199 188.702 9.71265L187.299 8.28735C180.906 14.5801 174.412 20.7744 167.916 26.8708L169.284 28.3292ZM188.664 9.74741C189.432 9.06515 190.005 8.8 190.9 8.8V6.8C189.395 6.8 188.368 7.33485 187.336 8.25259L188.664 9.74741ZM190.9 8.8H208.7V6.8H190.9V8.8ZM208.7 8.8H210.4V6.8H208.7V8.8ZM211.232 7.2453C210.035 5.44917 208.68 3.92972 207.408 2.50151L205.914 3.83149C207.197 5.27238 208.46 6.6923 209.568 8.3547L211.232 7.2453ZM207.408 2.50151C206.911 1.9436 206.428 1.40106 205.962 0.852356L204.438 2.14764C204.922 2.71683 205.42 3.27656 205.914 3.8315L207.408 2.50151ZM205.94 0.827327C205.367 0.196687 204.755 -0.274772 204.047 -0.580562C203.34 -0.885786 202.597 -1 201.8 -1V1C202.403 1 202.86 1.08579 203.254 1.25556C203.645 1.42477 204.033 1.70331 204.46 2.17267L205.94 0.827327ZM201.8 -1H105.4V1H201.8V-1ZM105.4 -1H105V1H105.4V-1Z" fill="#204C7A" mask="url(#path-1-inside-1)"/>
<g filter="url(#filter0_d)">
<path fill-rule="evenodd" clip-rule="evenodd" d="M41.7024 27.6C42.3024 28.2 43.4024 28.6 44.3024 28.6H105.036H105.302H166.036C166.936 28.6 168.036 28.2 168.636 27.6C169.204 27.0674 169.771 26.5341 170.339 26H105.302H105.036H40C40.5674 26.5341 41.1349 27.0674 41.7024 27.6Z" fill="#00EDFF"/>
</g>
<defs>
<filter id="filter0_d" x="33" y="17" width="144.339" height="16.6" filterUnits="userSpaceOnUse" color-interpolation-filters="sRGB">
<feFlood flood-opacity="0" result="BackgroundImageFix"/>
<feColorMatrix in="SourceAlpha" type="matrix" values="0 0 0 0 0 0 0 0 0 0 0 0 0 0 0 0 0 0 127 0"/>
<feOffset dy="-2"/>
<feGaussianBlur stdDeviation="3.5"/>
<feColorMatrix type="matrix" values="0 0 0 0 0.262745 0 0 0 0 0.831373 0 0 0 0 0.972549 0 0 0 1 0"/>
<feBlend mode="normal" in2="BackgroundImageFix" result="effect1_dropShadow"/>
<feBlend mode="normal" in="SourceGraphic" in2="effect1_dropShadow" result="shape"/>
</filter>
</defs>
</svg>
