<svg width="635" height="42" viewBox="0 0 635 42" fill="none" xmlns="http://www.w3.org/2000/svg">
<path d="M411 31.5H635V0H25V17H397L411 31.5Z" fill="url(#paint0_radial)"/>
<rect x="0.25" y="16.25" width="397.5" height="0.5" fill="#0A1822" fill-opacity="0.8" stroke="url(#paint1_linear)" stroke-width="0.5"/>
<rect x="411.25" y="31.25" width="223.5" height="0.5" fill="#0A1822" fill-opacity="0.8" stroke="url(#paint2_linear)" stroke-width="0.5"/>
<g filter="url(#filter0_d)">
<rect width="6.40515" height="22.6274" transform="matrix(-1 0 -0.707107 -0.707107 415.405 32)" fill="#42EDF8"/>
</g>
<g filter="url(#filter1_dd)">
<path d="M500.7 20.18L500.742 20.166C500.677 19.942 500.644 19.718 500.644 19.494V12.2H501.82V22H500.644L495.52 14.132L495.478 14.146C495.543 14.37 495.576 14.594 495.576 14.818V22H494.4V12.2H495.576L500.7 20.18ZM510.899 21.02V22H504.627V12.2H510.899V13.18H505.803V16.54H510.115V17.52H505.803V21.02H510.899ZM518.473 12.2H519.733L517.115 16.918L520.083 22H518.795L516.429 17.8C516.336 17.6507 516.289 17.52 516.289 17.408H516.233C516.233 17.52 516.187 17.6507 516.093 17.8L513.727 22H512.439L515.407 16.918L512.789 12.2H514.049L516.065 15.98C516.177 16.204 516.233 16.3487 516.233 16.414H516.289C516.289 16.3767 516.299 16.3347 516.317 16.288C516.336 16.232 516.359 16.176 516.387 16.12C516.425 16.0547 516.448 16.008 516.457 15.98L518.473 12.2ZM520.492 12.2H527.884V13.18H524.776V22H523.6V13.18H520.492V12.2Z" fill="#43D4F8"/>
</g>
<path d="M541.52 17.56H540.512V17.332C540.512 17.212 540.504 17.136 540.488 17.104C540.48 17.064 540.44 17.016 540.368 16.96C540.296 16.904 540.24 16.872 540.2 16.864C540.16 16.848 540.068 16.84 539.924 16.84H538.316C538.172 16.84 538.08 16.848 538.04 16.864C538 16.872 537.944 16.904 537.872 16.96C537.8 17.016 537.756 17.064 537.74 17.104C537.732 17.136 537.728 17.212 537.728 17.332V20.668C537.728 20.788 537.732 20.868 537.74 20.908C537.756 20.94 537.8 20.984 537.872 21.04C537.944 21.096 538 21.132 538.04 21.148C538.08 21.156 538.172 21.16 538.316 21.16H539.924C540.068 21.16 540.16 21.156 540.2 21.148C540.24 21.132 540.296 21.096 540.368 21.04C540.44 20.984 540.48 20.94 540.488 20.908C540.504 20.868 540.512 20.788 540.512 20.668V20.44H541.52V20.92C541.52 21.16 541.424 21.36 541.232 21.52L540.944 21.76C540.752 21.92 540.56 22 540.368 22H537.872C537.68 22 537.488 21.92 537.296 21.76L537.008 21.52C536.816 21.36 536.72 21.16 536.72 20.92V17.08C536.72 16.84 536.816 16.64 537.008 16.48L537.296 16.24C537.488 16.08 537.68 16 537.872 16H540.368C540.56 16 540.752 16.08 540.944 16.24L541.232 16.48C541.424 16.64 541.52 16.84 541.52 17.08V17.56ZM544.672 16H546.772C546.964 16 547.156 16.08 547.348 16.24L547.636 16.48C547.828 16.64 547.924 16.84 547.924 17.08V22H546.916V17.332C546.916 17.212 546.908 17.136 546.892 17.104C546.884 17.064 546.844 17.016 546.772 16.96C546.7 16.904 546.644 16.872 546.604 16.864C546.564 16.848 546.472 16.84 546.328 16.84H544.792C544.64 16.84 544.536 16.848 544.48 16.864C544.432 16.88 544.336 16.932 544.192 17.02C544.048 17.108 543.964 17.172 543.94 17.212C543.916 17.252 543.904 17.332 543.904 17.452V22H542.896V13.12H543.904V16.564H543.952C543.952 16.492 544.04 16.38 544.216 16.228C544.392 16.076 544.544 16 544.672 16ZM553.589 21.52H553.541C553.541 21.616 553.453 21.716 553.277 21.82C553.133 21.908 553.033 21.96 552.977 21.976C552.929 21.992 552.833 22 552.689 22H550.637C550.445 22 550.253 21.92 550.061 21.76L549.773 21.52C549.581 21.36 549.485 21.16 549.485 20.92V19.48C549.485 19.24 549.581 19.04 549.773 18.88L550.061 18.64C550.253 18.48 550.445 18.4 550.637 18.4H552.785C552.937 18.4 553.033 18.408 553.073 18.424C553.113 18.432 553.165 18.464 553.229 18.52C553.325 18.6 553.373 18.68 553.373 18.76H553.421V17.332C553.421 17.212 553.413 17.136 553.397 17.104C553.389 17.064 553.349 17.016 553.277 16.96C553.205 16.904 553.149 16.872 553.109 16.864C553.069 16.848 552.977 16.84 552.833 16.84H550.889C550.745 16.84 550.645 16.852 550.589 16.876C550.541 16.892 550.445 16.96 550.301 17.08L549.581 16.48L549.869 16.24C550.013 16.12 550.109 16.052 550.157 16.036C550.213 16.012 550.313 16 550.457 16H553.277C553.469 16 553.661 16.08 553.853 16.24L554.141 16.48C554.333 16.64 554.429 16.84 554.429 17.08V20.668C554.429 20.788 554.433 20.868 554.441 20.908C554.457 20.94 554.501 20.984 554.573 21.04C554.645 21.096 554.685 21.144 554.693 21.184C554.709 21.216 554.717 21.292 554.717 21.412V22H554.297C554.153 22 554.053 21.992 553.997 21.976C553.949 21.952 553.877 21.9 553.781 21.82C553.653 21.716 553.589 21.616 553.589 21.52ZM550.493 19.732V20.668C550.493 20.788 550.497 20.868 550.505 20.908C550.521 20.94 550.565 20.984 550.637 21.04C550.709 21.096 550.765 21.132 550.805 21.148C550.845 21.156 550.937 21.16 551.081 21.16H552.545C552.689 21.16 552.785 21.152 552.833 21.136C552.889 21.12 552.989 21.068 553.133 20.98C553.277 20.892 553.361 20.828 553.385 20.788C553.409 20.748 553.421 20.668 553.421 20.548V19.732C553.421 19.612 553.413 19.536 553.397 19.504C553.389 19.464 553.349 19.416 553.277 19.36C553.205 19.304 553.149 19.272 553.109 19.264C553.069 19.248 552.977 19.24 552.833 19.24H551.081C550.937 19.24 550.845 19.248 550.805 19.264C550.765 19.272 550.709 19.304 550.637 19.36C550.565 19.416 550.521 19.464 550.505 19.504C550.497 19.536 550.493 19.612 550.493 19.732ZM556.161 16H556.581C556.725 16 556.821 16.012 556.869 16.036C556.925 16.052 557.001 16.1 557.097 16.18C557.225 16.284 557.289 16.384 557.289 16.48H557.337C557.337 16.384 557.425 16.284 557.601 16.18C557.745 16.092 557.841 16.04 557.889 16.024C557.945 16.008 558.045 16 558.189 16H560.481C560.673 16 560.865 16.08 561.057 16.24L561.345 16.48C561.537 16.64 561.633 16.84 561.633 17.08V20.92C561.633 21.16 561.537 21.36 561.345 21.52L561.057 21.76C560.865 21.92 560.673 22 560.481 22H558.369C558.161 22 557.969 21.92 557.793 21.76C557.601 21.568 557.505 21.448 557.505 21.4H557.457V25.12H556.449V17.332C556.449 17.212 556.441 17.136 556.425 17.104C556.417 17.064 556.377 17.016 556.305 16.96C556.233 16.904 556.189 16.86 556.173 16.828C556.165 16.788 556.161 16.708 556.161 16.588V16ZM558.321 21.16H560.037C560.181 21.16 560.273 21.156 560.313 21.148C560.353 21.132 560.409 21.096 560.481 21.04C560.553 20.984 560.593 20.94 560.601 20.908C560.617 20.868 560.625 20.788 560.625 20.668V17.332C560.625 17.212 560.617 17.136 560.601 17.104C560.593 17.064 560.553 17.016 560.481 16.96C560.409 16.904 560.353 16.872 560.313 16.864C560.273 16.848 560.181 16.84 560.037 16.84H558.333C558.189 16.84 558.089 16.848 558.033 16.864C557.985 16.88 557.889 16.932 557.745 17.02C557.601 17.108 557.517 17.172 557.493 17.212C557.469 17.252 557.457 17.332 557.457 17.452V20.44C557.457 20.6 557.553 20.76 557.745 20.92C557.937 21.08 558.129 21.16 558.321 21.16ZM564.455 14.32V16H565.991C566.095 16.08 566.155 16.144 566.171 16.192C566.195 16.232 566.207 16.344 566.207 16.528V16.84H564.455V20.668C564.455 20.788 564.459 20.868 564.467 20.908C564.483 20.94 564.527 20.984 564.599 21.04C564.671 21.096 564.727 21.132 564.767 21.148C564.807 21.156 564.899 21.16 565.043 21.16H566.135C566.239 21.24 566.299 21.304 566.315 21.352C566.339 21.392 566.351 21.504 566.351 21.688V22H564.599C564.407 22 564.215 21.92 564.023 21.76L563.735 21.52C563.543 21.36 563.447 21.16 563.447 20.92V16.84H562.871C562.767 16.76 562.703 16.7 562.679 16.66C562.663 16.612 562.655 16.496 562.655 16.312V16H563.447V14.32H564.455ZM572.123 20.92L572.843 21.52L572.555 21.76C572.411 21.88 572.311 21.952 572.255 21.976C572.207 21.992 572.111 22 571.967 22H568.763C568.571 22 568.379 21.92 568.187 21.76L567.899 21.52C567.707 21.36 567.611 21.16 567.611 20.92V17.08C567.611 16.84 567.707 16.64 567.899 16.48L568.187 16.24C568.379 16.08 568.571 16 568.763 16H571.559C571.719 16 571.911 16.08 572.135 16.24L572.435 16.48C572.627 16.624 572.723 16.824 572.723 17.08V19.54H568.619V20.668C568.619 20.788 568.623 20.868 568.631 20.908C568.647 20.94 568.691 20.984 568.763 21.04C568.835 21.096 568.891 21.132 568.931 21.148C568.971 21.156 569.063 21.16 569.207 21.16H571.535C571.679 21.16 571.775 21.152 571.823 21.136C571.879 21.112 571.979 21.04 572.123 20.92ZM571.715 18.76V17.332C571.715 17.212 571.707 17.136 571.691 17.104C571.683 17.064 571.643 17.016 571.571 16.96C571.499 16.904 571.443 16.872 571.403 16.864C571.363 16.848 571.271 16.84 571.127 16.84H569.207C569.063 16.84 568.971 16.848 568.931 16.864C568.891 16.872 568.835 16.904 568.763 16.96C568.691 17.016 568.647 17.064 568.631 17.104C568.623 17.136 568.619 17.212 568.619 17.332V18.76H571.715ZM574.161 16H574.581C574.725 16 574.821 16.012 574.869 16.036C574.925 16.052 575.001 16.1 575.097 16.18C575.225 16.284 575.289 16.384 575.289 16.48H575.337C575.337 16.384 575.425 16.284 575.601 16.18C575.745 16.092 575.841 16.04 575.889 16.024C575.945 16.008 576.045 16 576.189 16H577.293C577.485 16 577.677 16.08 577.869 16.24L578.157 16.48L577.437 17.08L577.293 16.96C577.221 16.904 577.165 16.872 577.125 16.864C577.085 16.848 576.993 16.84 576.849 16.84H576.333C576.189 16.84 576.089 16.848 576.033 16.864C575.985 16.88 575.889 16.932 575.745 17.02C575.601 17.108 575.517 17.172 575.493 17.212C575.469 17.252 575.457 17.332 575.457 17.452V22H574.449V17.332C574.449 17.212 574.441 17.136 574.425 17.104C574.417 17.064 574.377 17.016 574.305 16.96C574.233 16.904 574.189 16.86 574.173 16.828C574.165 16.788 574.161 16.708 574.161 16.588V16Z" fill="#0788B9"/>
<g filter="url(#filter2_dd)">
<path fill-rule="evenodd" clip-rule="evenodd" d="M463.414 23L469.778 16.636L469.753 16.6109L469.778 16.5858L463.414 10.2219L462 11.6361L466.975 16.6109L462 21.5858L463.414 23ZM456.414 23L462.778 16.636L462.753 16.6109L462.778 16.5858L456.414 10.2219L455 11.6361L459.975 16.6109L455 21.5858L456.414 23ZM455.778 16.636L449.414 23L448 21.5858L452.975 16.6109L448 11.6361L449.414 10.2219L455.778 16.5858L455.753 16.6109L455.778 16.636Z" fill="#CCFFFF"/>
</g>
<defs>
<filter id="filter0_d" x="386" y="6" width="42.4052" height="36" filterUnits="userSpaceOnUse" color-interpolation-filters="sRGB">
<feFlood flood-opacity="0" result="BackgroundImageFix"/>
<feColorMatrix in="SourceAlpha" type="matrix" values="0 0 0 0 0 0 0 0 0 0 0 0 0 0 0 0 0 0 127 0"/>
<feOffset dx="3"/>
<feGaussianBlur stdDeviation="5"/>
<feColorMatrix type="matrix" values="0 0 0 0 0 0 0 0 0 0.439216 0 0 0 0 0.792157 0 0 0 0.6 0"/>
<feBlend mode="normal" in2="BackgroundImageFix" result="effect1_dropShadow"/>
<feBlend mode="normal" in="SourceGraphic" in2="effect1_dropShadow" result="shape"/>
</filter>
<filter id="filter1_dd" x="484.4" y="2.19995" width="53.4842" height="29.8" filterUnits="userSpaceOnUse" color-interpolation-filters="sRGB">
<feFlood flood-opacity="0" result="BackgroundImageFix"/>
<feColorMatrix in="SourceAlpha" type="matrix" values="0 0 0 0 0 0 0 0 0 0 0 0 0 0 0 0 0 0 127 0"/>
<feOffset/>
<feGaussianBlur stdDeviation="5"/>
<feColorMatrix type="matrix" values="0 0 0 0 0 0 0 0 0 0.439216 0 0 0 0 0.792157 0 0 0 0.8 0"/>
<feBlend mode="normal" in2="BackgroundImageFix" result="effect1_dropShadow"/>
<feColorMatrix in="SourceAlpha" type="matrix" values="0 0 0 0 0 0 0 0 0 0 0 0 0 0 0 0 0 0 127 0"/>
<feOffset/>
<feGaussianBlur stdDeviation="5"/>
<feColorMatrix type="matrix" values="0 0 0 0 0 0 0 0 0 0.439216 0 0 0 0 0.792157 0 0 0 0.8 0"/>
<feBlend mode="normal" in2="effect1_dropShadow" result="effect2_dropShadow"/>
<feBlend mode="normal" in="SourceGraphic" in2="effect2_dropShadow" result="shape"/>
</filter>
<filter id="filter2_dd" x="441" y="3.22192" width="35.7782" height="26.7781" filterUnits="userSpaceOnUse" color-interpolation-filters="sRGB">
<feFlood flood-opacity="0" result="BackgroundImageFix"/>
<feColorMatrix in="SourceAlpha" type="matrix" values="0 0 0 0 0 0 0 0 0 0 0 0 0 0 0 0 0 0 127 0"/>
<feOffset/>
<feGaussianBlur stdDeviation="3.5"/>
<feColorMatrix type="matrix" values="0 0 0 0 0 0 0 0 0 0.45 0 0 0 0 1 0 0 0 1 0"/>
<feBlend mode="normal" in2="BackgroundImageFix" result="effect1_dropShadow"/>
<feColorMatrix in="SourceAlpha" type="matrix" values="0 0 0 0 0 0 0 0 0 0 0 0 0 0 0 0 0 0 127 0"/>
<feOffset/>
<feGaussianBlur stdDeviation="3.5"/>
<feColorMatrix type="matrix" values="0 0 0 0 0 0 0 0 0 0.45098 0 0 0 0 1 0 0 0 1 0"/>
<feBlend mode="normal" in2="effect1_dropShadow" result="effect2_dropShadow"/>
<feBlend mode="normal" in="SourceGraphic" in2="effect2_dropShadow" result="shape"/>
</filter>
<radialGradient id="paint0_radial" cx="0" cy="0" r="1" gradientUnits="userSpaceOnUse" gradientTransform="translate(472 32) rotate(-90) scale(46.5 163)">
<stop stop-color="#0A5688" stop-opacity="0.41"/>
<stop offset="1" stop-color="#0A5688" stop-opacity="0"/>
</radialGradient>
<linearGradient id="paint1_linear" x1="9" y1="16" x2="398" y2="16" gradientUnits="userSpaceOnUse">
<stop stop-color="#0A456D" stop-opacity="0"/>
<stop offset="0.515625" stop-color="#0A456D"/>
</linearGradient>
<linearGradient id="paint2_linear" x1="523" y1="31" x2="631" y2="31" gradientUnits="userSpaceOnUse">
<stop stop-color="#0A456D"/>
<stop offset="1" stop-color="#0A456D" stop-opacity="0"/>
</linearGradient>
</defs>
</svg>
