<svg width="635" height="42" viewBox="0 0 635 42" fill="none" xmlns="http://www.w3.org/2000/svg">
<path d="M224 31.5H0V0H610V17H238L224 31.5Z" fill="url(#paint0_radial)"/>
<rect x="-0.25" y="0.25" width="397.5" height="0.5" transform="matrix(-1 0 0 1 634.5 16)" fill="#0A1822" fill-opacity="0.8" stroke="url(#paint1_linear)" stroke-width="0.5"/>
<rect x="-0.25" y="0.25" width="223.5" height="0.5" transform="matrix(-1 0 0 1 223.5 31)" fill="#0A1822" fill-opacity="0.8" stroke="url(#paint2_linear)" stroke-width="0.5"/>
<g filter="url(#filter0_d)">
<rect width="6.40515" height="22.6274" transform="matrix(1 0 0.707107 -0.707107 219.595 32)" fill="#42EDF8"/>
</g>
<g filter="url(#filter1_dd)">
<path d="M79.576 18.08V22H78.4V12.2H83.58C83.804 12.2 84.028 12.2933 84.252 12.48L84.588 12.76C84.812 12.9467 84.924 13.18 84.924 13.46V16.82C84.924 17.1 84.812 17.3333 84.588 17.52L84.252 17.8C84.028 17.9867 83.804 18.08 83.58 18.08H79.576ZM79.576 13.18V17.1H83.062C83.23 17.1 83.3373 17.0953 83.384 17.086C83.4307 17.0673 83.496 17.0253 83.58 16.96C83.664 16.8947 83.7107 16.8433 83.72 16.806C83.7387 16.7593 83.748 16.666 83.748 16.526V13.754C83.748 13.614 83.7387 13.5253 83.72 13.488C83.7107 13.4413 83.664 13.3853 83.58 13.32C83.496 13.2547 83.4307 13.2173 83.384 13.208C83.3373 13.1893 83.23 13.18 83.062 13.18H79.576ZM87.3688 12.2H92.5488C92.7728 12.2 92.9968 12.2933 93.2208 12.48L93.5568 12.76C93.7808 12.9467 93.8928 13.18 93.8928 13.46V16.736C93.8928 17.0253 93.7761 17.268 93.5428 17.464L93.1928 17.758C92.9874 17.926 92.7728 18.01 92.5488 18.01H91.7648L93.2068 20.25C93.3094 20.4087 93.3794 20.5113 93.4168 20.558C93.4634 20.5953 93.5614 20.656 93.7108 20.74L93.8648 20.824C94.0328 20.9173 94.1308 20.992 94.1588 21.048C94.1868 21.104 94.2007 21.2393 94.2007 21.454V22H93.8508C93.6828 22 93.5661 21.9907 93.5008 21.972C93.4448 21.9533 93.3421 21.8927 93.1928 21.79L92.9268 21.608C92.7214 21.468 92.5534 21.286 92.4228 21.062L90.5608 18.08H88.5448V22H87.3688V12.2ZM88.5448 13.18V17.1H92.0308C92.1988 17.1 92.3061 17.0953 92.3528 17.086C92.3994 17.0673 92.4648 17.0253 92.5488 16.96C92.6328 16.8947 92.6794 16.8433 92.6888 16.806C92.7074 16.7593 92.7168 16.666 92.7168 16.526V13.754C92.7168 13.614 92.7074 13.5253 92.6888 13.488C92.6794 13.4413 92.6328 13.3853 92.5488 13.32C92.4648 13.2547 92.3994 13.2173 92.3528 13.208C92.3061 13.1893 92.1988 13.18 92.0308 13.18H88.5448ZM103.061 21.02V22H96.7887V12.2H103.061V13.18H97.9647V16.54H102.277V17.52H97.9647V21.02H103.061ZM108.311 21.132H108.367C108.367 21.076 108.395 20.9547 108.451 20.768L111.111 12.2H112.357L109.109 22H107.569L104.321 12.2H105.567L108.227 20.768C108.283 20.9547 108.311 21.076 108.311 21.132ZM113.961 12.2H115.137V22H113.961V12.2ZM119.283 12.2H124.407C124.631 12.2 124.855 12.2933 125.079 12.48L125.415 12.76C125.639 12.9467 125.751 13.18 125.751 13.46V20.74C125.751 21.02 125.639 21.2533 125.415 21.44L125.079 21.72C124.855 21.9067 124.631 22 124.407 22H119.283C119.059 22 118.835 21.9067 118.611 21.72L118.275 21.44C118.051 21.2533 117.939 21.02 117.939 20.74V13.46C117.939 13.18 118.051 12.9467 118.275 12.76L118.611 12.48C118.835 12.2933 119.059 12.2 119.283 12.2ZM124.575 20.446V13.754C124.575 13.614 124.566 13.5253 124.547 13.488C124.538 13.4413 124.491 13.3853 124.407 13.32C124.323 13.2547 124.258 13.2173 124.211 13.208C124.164 13.1893 124.057 13.18 123.889 13.18H119.801C119.633 13.18 119.526 13.1893 119.479 13.208C119.432 13.2173 119.367 13.2547 119.283 13.32C119.199 13.3853 119.148 13.4413 119.129 13.488C119.12 13.5253 119.115 13.614 119.115 13.754V20.446C119.115 20.586 119.12 20.6793 119.129 20.726C119.148 20.7633 119.199 20.8147 119.283 20.88C119.367 20.9453 119.432 20.9873 119.479 21.006C119.526 21.0153 119.633 21.02 119.801 21.02H123.889C124.057 21.02 124.164 21.0153 124.211 21.006C124.258 20.9873 124.323 20.9453 124.407 20.88C124.491 20.8147 124.538 20.7633 124.547 20.726C124.566 20.6793 124.575 20.586 124.575 20.446ZM134.82 12.2H135.996V20.74C135.996 21.02 135.884 21.2533 135.66 21.44L135.324 21.72C135.1 21.9067 134.876 22 134.652 22H129.892C129.668 22 129.444 21.9067 129.22 21.72L128.884 21.44C128.66 21.2533 128.548 21.02 128.548 20.74V12.2H129.724V20.446C129.724 20.586 129.729 20.6793 129.738 20.726C129.757 20.7633 129.808 20.8147 129.892 20.88C129.976 20.9453 130.042 20.9873 130.088 21.006C130.135 21.0153 130.242 21.02 130.41 21.02H134.134C134.302 21.02 134.41 21.0153 134.456 21.006C134.503 20.9873 134.568 20.9453 134.652 20.88C134.736 20.8147 134.783 20.7633 134.792 20.726C134.811 20.6793 134.82 20.586 134.82 20.446V12.2ZM143.282 17.52H139.936C139.712 17.52 139.488 17.4267 139.264 17.24L138.886 16.918C138.69 16.7593 138.592 16.5727 138.592 16.358V13.46C138.592 13.18 138.704 12.9467 138.928 12.76L139.264 12.48C139.488 12.2933 139.712 12.2 139.936 12.2H143.66C143.884 12.2 144.108 12.2933 144.332 12.48L144.668 12.76C144.892 12.9467 145.004 13.18 145.004 13.46V14.02H143.828V13.754C143.828 13.614 143.819 13.5253 143.8 13.488C143.791 13.4413 143.744 13.3853 143.66 13.32C143.576 13.2547 143.511 13.2173 143.464 13.208C143.418 13.1893 143.31 13.18 143.142 13.18H140.454C140.286 13.18 140.179 13.1893 140.132 13.208C140.086 13.2173 140.02 13.2547 139.936 13.32C139.852 13.3853 139.801 13.4413 139.782 13.488C139.773 13.5253 139.768 13.614 139.768 13.754V15.966C139.768 16.106 139.773 16.1993 139.782 16.246C139.801 16.2833 139.852 16.3347 139.936 16.4C140.02 16.4653 140.086 16.5073 140.132 16.526C140.179 16.5353 140.286 16.54 140.454 16.54H143.8C144.024 16.54 144.248 16.6333 144.472 16.82L144.808 17.1C145.032 17.2867 145.144 17.52 145.144 17.8V20.74C145.144 21.02 145.032 21.2533 144.808 21.44L144.472 21.72C144.248 21.9067 144.024 22 143.8 22H139.796C139.572 22 139.348 21.9067 139.124 21.72L138.788 21.44C138.564 21.2533 138.452 21.02 138.452 20.74V20.18H139.628V20.446C139.628 20.586 139.633 20.6793 139.642 20.726C139.661 20.7633 139.712 20.8147 139.796 20.88C139.88 20.9453 139.946 20.9873 139.992 21.006C140.039 21.0153 140.146 21.02 140.314 21.02H143.282C143.45 21.02 143.558 21.0153 143.604 21.006C143.651 20.9873 143.716 20.9453 143.8 20.88C143.884 20.8147 143.931 20.7633 143.94 20.726C143.959 20.6793 143.968 20.586 143.968 20.446V18.094C143.968 17.954 143.959 17.8653 143.94 17.828C143.931 17.7813 143.884 17.7253 143.8 17.66C143.716 17.5947 143.651 17.5573 143.604 17.548C143.558 17.5293 143.45 17.52 143.282 17.52Z" fill="#43D4F8"/>
</g>
<path d="M160.52 17.56H159.512V17.332C159.512 17.212 159.504 17.136 159.488 17.104C159.48 17.064 159.44 17.016 159.368 16.96C159.296 16.904 159.24 16.872 159.2 16.864C159.16 16.848 159.068 16.84 158.924 16.84H157.316C157.172 16.84 157.08 16.848 157.04 16.864C157 16.872 156.944 16.904 156.872 16.96C156.8 17.016 156.756 17.064 156.74 17.104C156.732 17.136 156.728 17.212 156.728 17.332V20.668C156.728 20.788 156.732 20.868 156.74 20.908C156.756 20.94 156.8 20.984 156.872 21.04C156.944 21.096 157 21.132 157.04 21.148C157.08 21.156 157.172 21.16 157.316 21.16H158.924C159.068 21.16 159.16 21.156 159.2 21.148C159.24 21.132 159.296 21.096 159.368 21.04C159.44 20.984 159.48 20.94 159.488 20.908C159.504 20.868 159.512 20.788 159.512 20.668V20.44H160.52V20.92C160.52 21.16 160.424 21.36 160.232 21.52L159.944 21.76C159.752 21.92 159.56 22 159.368 22H156.872C156.68 22 156.488 21.92 156.296 21.76L156.008 21.52C155.816 21.36 155.72 21.16 155.72 20.92V17.08C155.72 16.84 155.816 16.64 156.008 16.48L156.296 16.24C156.488 16.08 156.68 16 156.872 16H159.368C159.56 16 159.752 16.08 159.944 16.24L160.232 16.48C160.424 16.64 160.52 16.84 160.52 17.08V17.56ZM163.672 16H165.772C165.964 16 166.156 16.08 166.348 16.24L166.636 16.48C166.828 16.64 166.924 16.84 166.924 17.08V22H165.916V17.332C165.916 17.212 165.908 17.136 165.892 17.104C165.884 17.064 165.844 17.016 165.772 16.96C165.7 16.904 165.644 16.872 165.604 16.864C165.564 16.848 165.472 16.84 165.328 16.84H163.792C163.64 16.84 163.536 16.848 163.48 16.864C163.432 16.88 163.336 16.932 163.192 17.02C163.048 17.108 162.964 17.172 162.94 17.212C162.916 17.252 162.904 17.332 162.904 17.452V22H161.896V13.12H162.904V16.564H162.952C162.952 16.492 163.04 16.38 163.216 16.228C163.392 16.076 163.544 16 163.672 16ZM172.589 21.52H172.541C172.541 21.616 172.453 21.716 172.277 21.82C172.133 21.908 172.033 21.96 171.977 21.976C171.929 21.992 171.833 22 171.689 22H169.637C169.445 22 169.253 21.92 169.061 21.76L168.773 21.52C168.581 21.36 168.485 21.16 168.485 20.92V19.48C168.485 19.24 168.581 19.04 168.773 18.88L169.061 18.64C169.253 18.48 169.445 18.4 169.637 18.4H171.785C171.937 18.4 172.033 18.408 172.073 18.424C172.113 18.432 172.165 18.464 172.229 18.52C172.325 18.6 172.373 18.68 172.373 18.76H172.421V17.332C172.421 17.212 172.413 17.136 172.397 17.104C172.389 17.064 172.349 17.016 172.277 16.96C172.205 16.904 172.149 16.872 172.109 16.864C172.069 16.848 171.977 16.84 171.833 16.84H169.889C169.745 16.84 169.645 16.852 169.589 16.876C169.541 16.892 169.445 16.96 169.301 17.08L168.581 16.48L168.869 16.24C169.013 16.12 169.109 16.052 169.157 16.036C169.213 16.012 169.313 16 169.457 16H172.277C172.469 16 172.661 16.08 172.853 16.24L173.141 16.48C173.333 16.64 173.429 16.84 173.429 17.08V20.668C173.429 20.788 173.433 20.868 173.441 20.908C173.457 20.94 173.501 20.984 173.573 21.04C173.645 21.096 173.685 21.144 173.693 21.184C173.709 21.216 173.717 21.292 173.717 21.412V22H173.297C173.153 22 173.053 21.992 172.997 21.976C172.949 21.952 172.877 21.9 172.781 21.82C172.653 21.716 172.589 21.616 172.589 21.52ZM169.493 19.732V20.668C169.493 20.788 169.497 20.868 169.505 20.908C169.521 20.94 169.565 20.984 169.637 21.04C169.709 21.096 169.765 21.132 169.805 21.148C169.845 21.156 169.937 21.16 170.081 21.16H171.545C171.689 21.16 171.785 21.152 171.833 21.136C171.889 21.12 171.989 21.068 172.133 20.98C172.277 20.892 172.361 20.828 172.385 20.788C172.409 20.748 172.421 20.668 172.421 20.548V19.732C172.421 19.612 172.413 19.536 172.397 19.504C172.389 19.464 172.349 19.416 172.277 19.36C172.205 19.304 172.149 19.272 172.109 19.264C172.069 19.248 171.977 19.24 171.833 19.24H170.081C169.937 19.24 169.845 19.248 169.805 19.264C169.765 19.272 169.709 19.304 169.637 19.36C169.565 19.416 169.521 19.464 169.505 19.504C169.497 19.536 169.493 19.612 169.493 19.732ZM175.161 16H175.581C175.725 16 175.821 16.012 175.869 16.036C175.925 16.052 176.001 16.1 176.097 16.18C176.225 16.284 176.289 16.384 176.289 16.48H176.337C176.337 16.384 176.425 16.284 176.601 16.18C176.745 16.092 176.841 16.04 176.889 16.024C176.945 16.008 177.045 16 177.189 16H179.481C179.673 16 179.865 16.08 180.057 16.24L180.345 16.48C180.537 16.64 180.633 16.84 180.633 17.08V20.92C180.633 21.16 180.537 21.36 180.345 21.52L180.057 21.76C179.865 21.92 179.673 22 179.481 22H177.369C177.161 22 176.969 21.92 176.793 21.76C176.601 21.568 176.505 21.448 176.505 21.4H176.457V25.12H175.449V17.332C175.449 17.212 175.441 17.136 175.425 17.104C175.417 17.064 175.377 17.016 175.305 16.96C175.233 16.904 175.189 16.86 175.173 16.828C175.165 16.788 175.161 16.708 175.161 16.588V16ZM177.321 21.16H179.037C179.181 21.16 179.273 21.156 179.313 21.148C179.353 21.132 179.409 21.096 179.481 21.04C179.553 20.984 179.593 20.94 179.601 20.908C179.617 20.868 179.625 20.788 179.625 20.668V17.332C179.625 17.212 179.617 17.136 179.601 17.104C179.593 17.064 179.553 17.016 179.481 16.96C179.409 16.904 179.353 16.872 179.313 16.864C179.273 16.848 179.181 16.84 179.037 16.84H177.333C177.189 16.84 177.089 16.848 177.033 16.864C176.985 16.88 176.889 16.932 176.745 17.02C176.601 17.108 176.517 17.172 176.493 17.212C176.469 17.252 176.457 17.332 176.457 17.452V20.44C176.457 20.6 176.553 20.76 176.745 20.92C176.937 21.08 177.129 21.16 177.321 21.16ZM183.455 14.32V16H184.991C185.095 16.08 185.155 16.144 185.171 16.192C185.195 16.232 185.207 16.344 185.207 16.528V16.84H183.455V20.668C183.455 20.788 183.459 20.868 183.467 20.908C183.483 20.94 183.527 20.984 183.599 21.04C183.671 21.096 183.727 21.132 183.767 21.148C183.807 21.156 183.899 21.16 184.043 21.16H185.135C185.239 21.24 185.299 21.304 185.315 21.352C185.339 21.392 185.351 21.504 185.351 21.688V22H183.599C183.407 22 183.215 21.92 183.023 21.76L182.735 21.52C182.543 21.36 182.447 21.16 182.447 20.92V16.84H181.871C181.767 16.76 181.703 16.7 181.679 16.66C181.663 16.612 181.655 16.496 181.655 16.312V16H182.447V14.32H183.455ZM191.123 20.92L191.843 21.52L191.555 21.76C191.411 21.88 191.311 21.952 191.255 21.976C191.207 21.992 191.111 22 190.967 22H187.763C187.571 22 187.379 21.92 187.187 21.76L186.899 21.52C186.707 21.36 186.611 21.16 186.611 20.92V17.08C186.611 16.84 186.707 16.64 186.899 16.48L187.187 16.24C187.379 16.08 187.571 16 187.763 16H190.559C190.719 16 190.911 16.08 191.135 16.24L191.435 16.48C191.627 16.624 191.723 16.824 191.723 17.08V19.54H187.619V20.668C187.619 20.788 187.623 20.868 187.631 20.908C187.647 20.94 187.691 20.984 187.763 21.04C187.835 21.096 187.891 21.132 187.931 21.148C187.971 21.156 188.063 21.16 188.207 21.16H190.535C190.679 21.16 190.775 21.152 190.823 21.136C190.879 21.112 190.979 21.04 191.123 20.92ZM190.715 18.76V17.332C190.715 17.212 190.707 17.136 190.691 17.104C190.683 17.064 190.643 17.016 190.571 16.96C190.499 16.904 190.443 16.872 190.403 16.864C190.363 16.848 190.271 16.84 190.127 16.84H188.207C188.063 16.84 187.971 16.848 187.931 16.864C187.891 16.872 187.835 16.904 187.763 16.96C187.691 17.016 187.647 17.064 187.631 17.104C187.623 17.136 187.619 17.212 187.619 17.332V18.76H190.715ZM193.161 16H193.581C193.725 16 193.821 16.012 193.869 16.036C193.925 16.052 194.001 16.1 194.097 16.18C194.225 16.284 194.289 16.384 194.289 16.48H194.337C194.337 16.384 194.425 16.284 194.601 16.18C194.745 16.092 194.841 16.04 194.889 16.024C194.945 16.008 195.045 16 195.189 16H196.293C196.485 16 196.677 16.08 196.869 16.24L197.157 16.48L196.437 17.08L196.293 16.96C196.221 16.904 196.165 16.872 196.125 16.864C196.085 16.848 195.993 16.84 195.849 16.84H195.333C195.189 16.84 195.089 16.848 195.033 16.864C194.985 16.88 194.889 16.932 194.745 17.02C194.601 17.108 194.517 17.172 194.493 17.212C194.469 17.252 194.457 17.332 194.457 17.452V22H193.449V17.332C193.449 17.212 193.441 17.136 193.425 17.104C193.417 17.064 193.377 17.016 193.305 16.96C193.233 16.904 193.189 16.86 193.173 16.828C193.165 16.788 193.161 16.708 193.161 16.588V16Z" fill="#0788B9"/>
<g filter="url(#filter2_dd)">
<path fill-rule="evenodd" clip-rule="evenodd" d="M38.364 10L32 16.364L32.0251 16.3891L32 16.4142L38.364 22.7781L39.7782 21.3639L34.8033 16.3891L39.7782 11.4142L38.364 10ZM45.364 10L39 16.364L39.0251 16.3891L39 16.4142L45.364 22.7781L46.7782 21.3639L41.8033 16.3891L46.7782 11.4142L45.364 10ZM46 16.364L52.364 10L53.7782 11.4142L48.8033 16.3891L53.7782 21.3639L52.364 22.7781L46 16.4142L46.0251 16.3891L46 16.364Z" fill="#CCFFFF"/>
</g>
<defs>
<filter id="filter0_d" x="212.595" y="6" width="42.4052" height="36" filterUnits="userSpaceOnUse" color-interpolation-filters="sRGB">
<feFlood flood-opacity="0" result="BackgroundImageFix"/>
<feColorMatrix in="SourceAlpha" type="matrix" values="0 0 0 0 0 0 0 0 0 0 0 0 0 0 0 0 0 0 127 0"/>
<feOffset dx="3"/>
<feGaussianBlur stdDeviation="5"/>
<feColorMatrix type="matrix" values="0 0 0 0 0 0 0 0 0 0.439216 0 0 0 0 0.792157 0 0 0 0.6 0"/>
<feBlend mode="normal" in2="BackgroundImageFix" result="effect1_dropShadow"/>
<feBlend mode="normal" in="SourceGraphic" in2="effect1_dropShadow" result="shape"/>
</filter>
<filter id="filter1_dd" x="68.4" y="2.19995" width="86.7443" height="29.8" filterUnits="userSpaceOnUse" color-interpolation-filters="sRGB">
<feFlood flood-opacity="0" result="BackgroundImageFix"/>
<feColorMatrix in="SourceAlpha" type="matrix" values="0 0 0 0 0 0 0 0 0 0 0 0 0 0 0 0 0 0 127 0"/>
<feOffset/>
<feGaussianBlur stdDeviation="5"/>
<feColorMatrix type="matrix" values="0 0 0 0 0 0 0 0 0 0.439216 0 0 0 0 0.792157 0 0 0 0.8 0"/>
<feBlend mode="normal" in2="BackgroundImageFix" result="effect1_dropShadow"/>
<feColorMatrix in="SourceAlpha" type="matrix" values="0 0 0 0 0 0 0 0 0 0 0 0 0 0 0 0 0 0 127 0"/>
<feOffset/>
<feGaussianBlur stdDeviation="5"/>
<feColorMatrix type="matrix" values="0 0 0 0 0 0 0 0 0 0.439216 0 0 0 0 0.792157 0 0 0 0.8 0"/>
<feBlend mode="normal" in2="effect1_dropShadow" result="effect2_dropShadow"/>
<feBlend mode="normal" in="SourceGraphic" in2="effect2_dropShadow" result="shape"/>
</filter>
<filter id="filter2_dd" x="25" y="3" width="35.7782" height="26.7781" filterUnits="userSpaceOnUse" color-interpolation-filters="sRGB">
<feFlood flood-opacity="0" result="BackgroundImageFix"/>
<feColorMatrix in="SourceAlpha" type="matrix" values="0 0 0 0 0 0 0 0 0 0 0 0 0 0 0 0 0 0 127 0"/>
<feOffset/>
<feGaussianBlur stdDeviation="3.5"/>
<feColorMatrix type="matrix" values="0 0 0 0 0 0 0 0 0 0.45 0 0 0 0 1 0 0 0 1 0"/>
<feBlend mode="normal" in2="BackgroundImageFix" result="effect1_dropShadow"/>
<feColorMatrix in="SourceAlpha" type="matrix" values="0 0 0 0 0 0 0 0 0 0 0 0 0 0 0 0 0 0 127 0"/>
<feOffset/>
<feGaussianBlur stdDeviation="3.5"/>
<feColorMatrix type="matrix" values="0 0 0 0 0 0 0 0 0 0.45098 0 0 0 0 1 0 0 0 1 0"/>
<feBlend mode="normal" in2="effect1_dropShadow" result="effect2_dropShadow"/>
<feBlend mode="normal" in="SourceGraphic" in2="effect2_dropShadow" result="shape"/>
</filter>
<radialGradient id="paint0_radial" cx="0" cy="0" r="1" gradientUnits="userSpaceOnUse" gradientTransform="translate(163 32) rotate(-90) scale(46.5 163)">
<stop stop-color="#0A5688" stop-opacity="0.41"/>
<stop offset="1" stop-color="#0A5688" stop-opacity="0"/>
</radialGradient>
<linearGradient id="paint1_linear" x1="9" y1="0" x2="398" y2="0" gradientUnits="userSpaceOnUse">
<stop stop-color="#0A456D" stop-opacity="0"/>
<stop offset="0.515625" stop-color="#0A456D"/>
</linearGradient>
<linearGradient id="paint2_linear" x1="112" y1="0" x2="220" y2="0" gradientUnits="userSpaceOnUse">
<stop stop-color="#0A456D"/>
<stop offset="1" stop-color="#0A456D" stop-opacity="0"/>
</linearGradient>
</defs>
</svg>
