<svg width="273" height="30" viewBox="0 0 273 30" fill="none" xmlns="http://www.w3.org/2000/svg">
<path d="M6.6321 15.3759L6.2801 15.0879C6.1521 14.9812 6.06143 14.9226 6.0081 14.9119C5.95476 14.8906 5.8481 14.8799 5.6881 14.8799H1.9441V18.8799H6.1201C6.3121 18.8799 6.43476 18.8746 6.4881 18.8639C6.54143 18.8426 6.6161 18.7946 6.7121 18.7199C6.8081 18.6452 6.86143 18.5866 6.8721 18.5439C6.89343 18.4906 6.9041 18.3839 6.9041 18.2239V15.9519C6.9041 15.7812 6.89343 15.6692 6.8721 15.6159C6.85076 15.5626 6.77076 15.4826 6.6321 15.3759ZM1.9441 9.91991V13.7599H5.4161C5.6081 13.7599 5.73076 13.7546 5.7841 13.7439C5.8481 13.7226 5.93343 13.6692 6.0401 13.5839L6.4561 13.2479C6.5841 13.1412 6.65876 13.0612 6.6801 13.0079C6.70143 12.9546 6.7121 12.8372 6.7121 12.6559V10.5759C6.7121 10.4159 6.70143 10.3146 6.6801 10.2719C6.66943 10.2186 6.6161 10.1546 6.5201 10.0799C6.4241 10.0052 6.34943 9.96258 6.2961 9.95191C6.24276 9.93058 6.1201 9.91991 5.9281 9.91991H1.9441ZM6.8081 14.1439V14.2239C6.9361 14.2239 7.08543 14.2932 7.2561 14.4319L8.0241 15.0559C8.1201 15.1412 8.17876 15.2212 8.2001 15.2959C8.2321 15.3599 8.2481 15.4879 8.2481 15.6799V18.5599C8.2481 18.8799 8.1201 19.1466 7.8641 19.3599C7.77876 19.4239 7.65076 19.5306 7.4801 19.6799C7.2241 19.8932 6.9681 19.9999 6.7121 19.9999H0.600098V8.79991H6.5201C6.7761 8.79991 7.0321 8.90658 7.2881 9.11991L7.6721 9.43991C7.9281 9.65324 8.0561 9.91991 8.0561 10.2399V12.9759C8.0561 13.1999 7.97076 13.3812 7.8001 13.5199L7.2561 13.9359C7.08543 14.0746 6.9361 14.1439 6.8081 14.1439Z" fill="white"/>
<path d="M10.8932 11.9999H11.4532C11.6452 11.9999 11.7732 12.0159 11.8372 12.0479C11.9119 12.0692 12.0132 12.1332 12.1412 12.2399C12.3119 12.3786 12.3972 12.5119 12.3972 12.6399H12.4612C12.4612 12.5119 12.5786 12.3786 12.8132 12.2399C13.0052 12.1226 13.1332 12.0532 13.1972 12.0319C13.2719 12.0106 13.4052 11.9999 13.5972 11.9999H15.0692C15.3252 11.9999 15.5812 12.1066 15.8372 12.3199L16.2212 12.6399L15.2612 13.4399L15.0692 13.2799C14.9732 13.2052 14.8986 13.1626 14.8452 13.1519C14.7919 13.1306 14.6692 13.1199 14.4772 13.1199H13.7892C13.5972 13.1199 13.4639 13.1306 13.3892 13.1519C13.3252 13.1732 13.1972 13.2426 13.0052 13.3599C12.8132 13.4772 12.7012 13.5626 12.6692 13.6159C12.6372 13.6692 12.6212 13.7759 12.6212 13.9359V19.9999H11.2772V13.7759C11.2772 13.6159 11.2666 13.5146 11.2452 13.4719C11.2346 13.4186 11.1812 13.3546 11.0852 13.2799C10.9892 13.2052 10.9306 13.1466 10.9092 13.1039C10.8986 13.0506 10.8932 12.9439 10.8932 12.7839V11.9999Z" fill="white"/>
<path d="M19.6127 11.9999H23.4527C23.7087 11.9999 23.9647 12.1066 24.2207 12.3199L24.6047 12.6399C24.8607 12.8532 24.9887 13.1199 24.9887 13.4399V18.5599C24.9887 18.8799 24.8607 19.1466 24.6047 19.3599L24.2207 19.6799C23.9647 19.8932 23.7087 19.9999 23.4527 19.9999H19.6127C19.3567 19.9999 19.1007 19.8932 18.8447 19.6799L18.4607 19.3599C18.2047 19.1466 18.0767 18.8799 18.0767 18.5599V13.4399C18.0767 13.1199 18.2047 12.8532 18.4607 12.6399L18.8447 12.3199C19.1007 12.1066 19.3567 11.9999 19.6127 11.9999ZM23.6447 18.2239V13.7759C23.6447 13.6159 23.6341 13.5146 23.6127 13.4719C23.6021 13.4186 23.5487 13.3546 23.4527 13.2799C23.3567 13.2052 23.2821 13.1626 23.2287 13.1519C23.1754 13.1306 23.0527 13.1199 22.8607 13.1199H20.2047C20.0127 13.1199 19.8901 13.1306 19.8367 13.1519C19.7834 13.1626 19.7087 13.2052 19.6127 13.2799C19.5167 13.3546 19.4581 13.4186 19.4367 13.4719C19.4261 13.5146 19.4207 13.6159 19.4207 13.7759V18.2239C19.4207 18.3839 19.4261 18.4906 19.4367 18.5439C19.4581 18.5866 19.5167 18.6452 19.6127 18.7199C19.7087 18.7946 19.7834 18.8426 19.8367 18.8639C19.8901 18.8746 20.0127 18.8799 20.2047 18.8799H22.8607C23.0527 18.8799 23.1754 18.8746 23.2287 18.8639C23.2821 18.8426 23.3567 18.7946 23.4527 18.7199C23.5487 18.6452 23.6021 18.5866 23.6127 18.5439C23.6341 18.4906 23.6447 18.3839 23.6447 18.2239Z" fill="white"/>
<path d="M31.4481 19.9999H28.9361C28.6801 19.9999 28.4241 19.8932 28.1681 19.6799L27.7841 19.3599C27.5281 19.1466 27.4001 18.8799 27.4001 18.5599V11.9999H28.7441V18.2239C28.7441 18.3839 28.7494 18.4906 28.7601 18.5439C28.7814 18.5866 28.8401 18.6452 28.9361 18.7199C29.0321 18.7946 29.1068 18.8426 29.1601 18.8639C29.2134 18.8746 29.3361 18.8799 29.5281 18.8799H31.2561C31.4481 18.8799 31.5761 18.8692 31.6401 18.8479C31.7148 18.8266 31.8481 18.7572 32.0401 18.6399C32.2321 18.5226 32.3441 18.4372 32.3761 18.3839C32.4081 18.3306 32.4241 18.2239 32.4241 18.0639V11.9999H33.7681V18.2239C33.7681 18.3839 33.7734 18.4906 33.7841 18.5439C33.8054 18.5866 33.8641 18.6452 33.9601 18.7199C34.0561 18.7946 34.1094 18.8586 34.1201 18.9119C34.1414 18.9546 34.1521 19.0559 34.1521 19.2159V19.9999H33.5921C33.4001 19.9999 33.2668 19.9892 33.1921 19.9679C33.1281 19.9359 33.0321 19.8666 32.9041 19.7599C32.7334 19.6212 32.6481 19.4879 32.6481 19.3599H32.5841C32.5841 19.4879 32.4668 19.6212 32.2321 19.7599C32.0401 19.8772 31.9068 19.9466 31.8321 19.9679C31.7681 19.9892 31.6401 19.9999 31.4481 19.9999Z" fill="white"/>
<path d="M38.68 18.8799H40.968C41.224 18.8799 41.48 18.7732 41.736 18.5599C41.992 18.3466 42.12 18.1332 42.12 17.9199V13.9359C42.12 13.7759 42.104 13.6692 42.072 13.6159C42.04 13.5626 41.928 13.4772 41.736 13.3599C41.544 13.2426 41.4106 13.1732 41.336 13.1519C41.272 13.1306 41.144 13.1199 40.952 13.1199H38.68C38.488 13.1199 38.3653 13.1306 38.312 13.1519C38.2586 13.1626 38.184 13.2052 38.088 13.2799C37.992 13.3546 37.9333 13.4186 37.912 13.4719C37.9013 13.5146 37.896 13.6159 37.896 13.7759V18.2239C37.896 18.3839 37.9013 18.4906 37.912 18.5439C37.9333 18.5866 37.992 18.6452 38.088 18.7199C38.184 18.7946 38.2586 18.8426 38.312 18.8639C38.3653 18.8746 38.488 18.8799 38.68 18.8799ZM37.544 23.0399H41.336C41.528 23.0399 41.6506 23.0292 41.704 23.0079C41.7573 22.9972 41.832 22.9546 41.928 22.8799C42.024 22.8052 42.0773 22.7412 42.088 22.6879C42.1093 22.6452 42.12 22.5439 42.12 22.3839V19.2319H42.056C42.0346 19.3279 41.9066 19.4772 41.672 19.6799C41.416 19.8932 41.16 19.9999 40.904 19.9999H38.088C37.832 19.9999 37.576 19.8932 37.32 19.6799L36.936 19.3599C36.68 19.1466 36.552 18.8799 36.552 18.5599V13.4399C36.552 13.1199 36.68 12.8532 36.936 12.6399L37.32 12.3199C37.576 12.1066 37.832 11.9999 38.088 11.9999H41.144C41.336 11.9999 41.464 12.0106 41.528 12.0319C41.6026 12.0532 41.736 12.1226 41.928 12.2399C42.1626 12.3786 42.28 12.5119 42.28 12.6399H42.344C42.344 12.5119 42.4293 12.3786 42.6 12.2399C42.728 12.1332 42.824 12.0692 42.888 12.0479C42.9626 12.0159 43.096 11.9999 43.288 11.9999H43.848V12.7839C43.848 12.9439 43.8373 13.0506 43.816 13.1039C43.8053 13.1466 43.752 13.2052 43.656 13.2799C43.56 13.3546 43.5013 13.4186 43.48 13.4719C43.4693 13.5146 43.464 13.6159 43.464 13.7759V22.7199C43.464 23.0399 43.336 23.3066 43.08 23.5199L42.696 23.8399C42.44 24.0532 42.184 24.1599 41.928 24.1599H37.256V23.7439C37.256 23.4986 37.2666 23.3439 37.288 23.2799C37.32 23.2266 37.4053 23.1466 37.544 23.0399Z" fill="white"/>
<path d="M48.6187 11.9999H51.4187C51.6747 11.9999 51.9307 12.1066 52.1867 12.3199L52.5707 12.6399C52.8267 12.8532 52.9547 13.1199 52.9547 13.4399V19.9999H51.6107V13.7759C51.6107 13.6159 51.6001 13.5146 51.5787 13.4719C51.5681 13.4186 51.5147 13.3546 51.4187 13.2799C51.3227 13.2052 51.2481 13.1626 51.1947 13.1519C51.1414 13.1306 51.0187 13.1199 50.8267 13.1199H48.7787C48.5761 13.1199 48.4374 13.1306 48.3627 13.1519C48.2987 13.1732 48.1707 13.2426 47.9787 13.3599C47.7867 13.4772 47.6747 13.5626 47.6427 13.6159C47.6107 13.6692 47.5947 13.7759 47.5947 13.9359V19.9999H46.2507V8.15991H47.5947V12.7519H47.6587C47.6587 12.6559 47.7761 12.5066 48.0107 12.3039C48.2454 12.1012 48.4481 11.9999 48.6187 11.9999Z" fill="white"/>
<path d="M57.1957 9.75991V11.9999H59.2437C59.3824 12.1066 59.4624 12.1919 59.4837 12.2559C59.5157 12.3092 59.5317 12.4586 59.5317 12.7039V13.1199H57.1957V18.2239C57.1957 18.3839 57.2011 18.4906 57.2117 18.5439C57.2331 18.5866 57.2917 18.6452 57.3877 18.7199C57.4837 18.7946 57.5584 18.8426 57.6117 18.8639C57.6651 18.8746 57.7877 18.8799 57.9797 18.8799H59.4357C59.5744 18.9866 59.6544 19.0719 59.6757 19.1359C59.7077 19.1892 59.7237 19.3386 59.7237 19.5839V19.9999H57.3877C57.1317 19.9999 56.8757 19.8932 56.6197 19.6799L56.2357 19.3599C55.9797 19.1466 55.8517 18.8799 55.8517 18.5599V13.1199H55.0837C54.9451 13.0132 54.8597 12.9332 54.8277 12.8799C54.8064 12.8159 54.7957 12.6612 54.7957 12.4159V11.9999H55.8517V9.75991H57.1957Z" fill="white"/>
<path d="M68.2026 9.75991V11.9999H70.2506C70.3893 12.1066 70.4693 12.1919 70.4906 12.2559C70.5226 12.3092 70.5386 12.4586 70.5386 12.7039V13.1199H68.2026V18.2239C68.2026 18.3839 68.2079 18.4906 68.2186 18.5439C68.2399 18.5866 68.2986 18.6452 68.3946 18.7199C68.4906 18.7946 68.5653 18.8426 68.6186 18.8639C68.6719 18.8746 68.7946 18.8799 68.9866 18.8799H70.4426C70.5813 18.9866 70.6613 19.0719 70.6826 19.1359C70.7146 19.1892 70.7306 19.3386 70.7306 19.5839V19.9999H68.3946C68.1386 19.9999 67.8826 19.8932 67.6266 19.6799L67.2426 19.3599C66.9866 19.1466 66.8586 18.8799 66.8586 18.5599V13.1199H66.0906C65.9519 13.0132 65.8666 12.9332 65.8346 12.8799C65.8133 12.8159 65.8026 12.6612 65.8026 12.4159V11.9999H66.8586V9.75991H68.2026Z" fill="white"/>
<path d="M74.4415 11.9999H78.2815C78.5375 11.9999 78.7935 12.1066 79.0495 12.3199L79.4335 12.6399C79.6895 12.8532 79.8175 13.1199 79.8175 13.4399V18.5599C79.8175 18.8799 79.6895 19.1466 79.4335 19.3599L79.0495 19.6799C78.7935 19.8932 78.5375 19.9999 78.2815 19.9999H74.4415C74.1855 19.9999 73.9295 19.8932 73.6735 19.6799L73.2895 19.3599C73.0335 19.1466 72.9055 18.8799 72.9055 18.5599V13.4399C72.9055 13.1199 73.0335 12.8532 73.2895 12.6399L73.6735 12.3199C73.9295 12.1066 74.1855 11.9999 74.4415 11.9999ZM78.4735 18.2239V13.7759C78.4735 13.6159 78.4628 13.5146 78.4415 13.4719C78.4308 13.4186 78.3775 13.3546 78.2815 13.2799C78.1855 13.2052 78.1108 13.1626 78.0575 13.1519C78.0041 13.1306 77.8815 13.1199 77.6895 13.1199H75.0335C74.8415 13.1199 74.7188 13.1306 74.6655 13.1519C74.6121 13.1626 74.5375 13.2052 74.4415 13.2799C74.3455 13.3546 74.2868 13.4186 74.2655 13.4719C74.2548 13.5146 74.2495 13.6159 74.2495 13.7759V18.2239C74.2495 18.3839 74.2548 18.4906 74.2655 18.5439C74.2868 18.5866 74.3455 18.6452 74.4415 18.7199C74.5375 18.7946 74.6121 18.8426 74.6655 18.8639C74.7188 18.8746 74.8415 18.8799 75.0335 18.8799H77.6895C77.8815 18.8799 78.0041 18.8746 78.0575 18.8639C78.1108 18.8426 78.1855 18.7946 78.2815 18.7199C78.3775 18.6452 78.4308 18.5866 78.4415 18.5439C78.4628 18.4906 78.4735 18.3839 78.4735 18.2239Z" fill="white"/>
<path d="M91.8608 24.1599H87.2528V23.7439C87.2528 23.4986 87.2635 23.3439 87.2849 23.2799C87.3169 23.2266 87.4022 23.1466 87.5408 23.0399H91.4608C91.6528 23.0399 91.7755 23.0292 91.8288 23.0079C91.8822 22.9972 91.9568 22.9546 92.0528 22.8799C92.1488 22.8052 92.2022 22.7412 92.2128 22.6879C92.2342 22.6452 92.2449 22.5439 92.2449 22.3839V19.2319H92.1808C92.1595 19.3279 92.0315 19.4772 91.7969 19.6799C91.5409 19.8932 91.2848 19.9999 91.0288 19.9999H88.2449C87.9889 19.9999 87.7328 19.8932 87.4768 19.6799L87.0928 19.3599C86.8368 19.1466 86.7088 18.8799 86.7088 18.5599V11.9999H88.0528V18.2239C88.0528 18.3839 88.0582 18.4906 88.0688 18.5439C88.0902 18.5866 88.1489 18.6452 88.2449 18.7199C88.3409 18.7946 88.4155 18.8426 88.4688 18.8639C88.5222 18.8746 88.6448 18.8799 88.8368 18.8799H90.8848C91.0768 18.8799 91.2049 18.8692 91.2689 18.8479C91.3435 18.8266 91.4768 18.7572 91.6688 18.6399C91.8608 18.5226 91.9728 18.4372 92.0048 18.3839C92.0368 18.3306 92.0528 18.2239 92.0528 18.0639V11.9999H93.3969V22.7199C93.3969 23.0399 93.2688 23.3066 93.0128 23.5199L92.6288 23.8399C92.3728 24.0532 92.1168 24.1599 91.8608 24.1599Z" fill="white"/>
<path d="M97.3502 11.9999H101.19C101.446 11.9999 101.702 12.1066 101.958 12.3199L102.342 12.6399C102.598 12.8532 102.726 13.1199 102.726 13.4399V18.5599C102.726 18.8799 102.598 19.1466 102.342 19.3599L101.958 19.6799C101.702 19.8932 101.446 19.9999 101.19 19.9999H97.3502C97.0942 19.9999 96.8382 19.8932 96.5822 19.6799L96.1982 19.3599C95.9422 19.1466 95.8142 18.8799 95.8142 18.5599V13.4399C95.8142 13.1199 95.9422 12.8532 96.1982 12.6399L96.5822 12.3199C96.8382 12.1066 97.0942 11.9999 97.3502 11.9999ZM101.382 18.2239V13.7759C101.382 13.6159 101.372 13.5146 101.35 13.4719C101.34 13.4186 101.286 13.3546 101.19 13.2799C101.094 13.2052 101.02 13.1626 100.966 13.1519C100.913 13.1306 100.79 13.1199 100.598 13.1199H97.9422C97.7502 13.1199 97.6276 13.1306 97.5742 13.1519C97.5209 13.1626 97.4462 13.2052 97.3502 13.2799C97.2542 13.3546 97.1956 13.4186 97.1742 13.4719C97.1636 13.5146 97.1582 13.6159 97.1582 13.7759V18.2239C97.1582 18.3839 97.1636 18.4906 97.1742 18.5439C97.1956 18.5866 97.2542 18.6452 97.3502 18.7199C97.4462 18.7946 97.5209 18.8426 97.5742 18.8639C97.6276 18.8746 97.7502 18.8799 97.9422 18.8799H100.598C100.79 18.8799 100.913 18.8746 100.966 18.8639C101.02 18.8426 101.094 18.7946 101.19 18.7199C101.286 18.6452 101.34 18.5866 101.35 18.5439C101.372 18.4906 101.382 18.3839 101.382 18.2239Z" fill="white"/>
<path d="M109.186 19.9999H106.674C106.418 19.9999 106.162 19.8932 105.906 19.6799L105.522 19.3599C105.266 19.1466 105.138 18.8799 105.138 18.5599V11.9999H106.482V18.2239C106.482 18.3839 106.487 18.4906 106.498 18.5439C106.519 18.5866 106.578 18.6452 106.674 18.7199C106.77 18.7946 106.844 18.8426 106.898 18.8639C106.951 18.8746 107.074 18.8799 107.266 18.8799H108.994C109.186 18.8799 109.314 18.8692 109.378 18.8479C109.452 18.8266 109.586 18.7572 109.778 18.6399C109.97 18.5226 110.082 18.4372 110.114 18.3839C110.146 18.3306 110.162 18.2239 110.162 18.0639V11.9999H111.506V18.2239C111.506 18.3839 111.511 18.4906 111.522 18.5439C111.543 18.5866 111.602 18.6452 111.698 18.7199C111.794 18.7946 111.847 18.8586 111.858 18.9119C111.879 18.9546 111.89 19.0559 111.89 19.2159V19.9999H111.33C111.138 19.9999 111.004 19.9892 110.93 19.9679C110.866 19.9359 110.77 19.8666 110.642 19.7599C110.471 19.6212 110.386 19.4879 110.386 19.3599H110.322C110.322 19.4879 110.204 19.6212 109.97 19.7599C109.778 19.8772 109.644 19.9466 109.57 19.9679C109.506 19.9892 109.378 19.9999 109.186 19.9999Z" fill="white"/>
<path d="M124.337 18.2239V13.7759C124.337 13.6159 124.327 13.5146 124.305 13.4719C124.295 13.4186 124.241 13.3546 124.145 13.2799C124.049 13.2052 123.975 13.1626 123.921 13.1519C123.868 13.1306 123.745 13.1199 123.553 13.1199H121.297C121.095 13.1199 120.956 13.1306 120.881 13.1519C120.817 13.1732 120.689 13.2426 120.497 13.3599C120.305 13.4772 120.193 13.5626 120.161 13.6159C120.129 13.6692 120.113 13.7759 120.113 13.9359V18.0639C120.113 18.2239 120.129 18.3306 120.161 18.3839C120.193 18.4372 120.305 18.5226 120.497 18.6399C120.689 18.7572 120.817 18.8266 120.881 18.8479C120.956 18.8692 121.089 18.8799 121.281 18.8799H123.553C123.745 18.8799 123.868 18.8746 123.921 18.8639C123.975 18.8426 124.049 18.7946 124.145 18.7199C124.241 18.6452 124.295 18.5866 124.305 18.5439C124.327 18.4906 124.337 18.3839 124.337 18.2239ZM120.113 8.15991V12.7519H120.177C120.177 12.6559 120.295 12.5066 120.529 12.3039C120.764 12.1012 120.967 11.9999 121.137 11.9999H124.145C124.401 11.9999 124.657 12.1066 124.913 12.3199L125.297 12.6399C125.553 12.8532 125.681 13.1199 125.681 13.4399V18.5599C125.681 18.8799 125.553 19.1466 125.297 19.3599L124.913 19.6799C124.657 19.8932 124.401 19.9999 124.145 19.9999H121.153C120.961 19.9999 120.828 19.9892 120.753 19.9679C120.689 19.9466 120.561 19.8772 120.369 19.7599C120.124 19.6426 119.996 19.5252 119.985 19.4079H119.921V19.9999H118.769V8.15991H120.113Z" fill="white"/>
<path d="M133.23 24.1599H128.622V23.7439C128.622 23.4986 128.632 23.3439 128.654 23.2799C128.686 23.2266 128.771 23.1466 128.91 23.0399H132.83C133.022 23.0399 133.144 23.0292 133.198 23.0079C133.251 22.9972 133.326 22.9546 133.422 22.8799C133.518 22.8052 133.571 22.7412 133.582 22.6879C133.603 22.6452 133.614 22.5439 133.614 22.3839V19.2319H133.55C133.528 19.3279 133.4 19.4772 133.166 19.6799C132.91 19.8932 132.654 19.9999 132.398 19.9999H129.614C129.358 19.9999 129.102 19.8932 128.846 19.6799L128.462 19.3599C128.206 19.1466 128.078 18.8799 128.078 18.5599V11.9999H129.422V18.2239C129.422 18.3839 129.427 18.4906 129.438 18.5439C129.459 18.5866 129.518 18.6452 129.614 18.7199C129.71 18.7946 129.784 18.8426 129.838 18.8639C129.891 18.8746 130.014 18.8799 130.206 18.8799H132.254C132.446 18.8799 132.574 18.8692 132.638 18.8479C132.712 18.8266 132.846 18.7572 133.038 18.6399C133.23 18.5226 133.342 18.4372 133.374 18.3839C133.406 18.3306 133.422 18.2239 133.422 18.0639V11.9999H134.766V22.7199C134.766 23.0399 134.638 23.3066 134.382 23.5199L133.998 23.8399C133.742 24.0532 133.486 24.1599 133.23 24.1599Z" fill="white"/>
<path d="M270.876 4.57793C271.696 3.75783 271.696 2.4282 270.876 1.60811C270.056 0.788015 268.726 0.788015 267.906 1.60811C267.086 2.4282 267.086 3.75783 267.906 4.57793C268.726 5.39802 270.056 5.39802 270.876 4.57793Z" fill="#42E8E0"/>
<path d="M262.477 12.9441C263.297 12.124 263.297 10.7944 262.477 9.97432C261.657 9.15423 260.327 9.15423 259.507 9.97432C258.687 10.7944 258.687 12.124 259.507 12.9441C260.327 13.7642 261.657 13.7642 262.477 12.9441Z" fill="#42E8E0"/>
<path d="M241.01 7.3199V0.899902H213.11V7.3199H223.91V29.5199H230.21V7.3199H241.01Z" fill="white"/>
<path fill-rule="evenodd" clip-rule="evenodd" d="M199.61 23.52C195.05 23.52 191.33 19.8 191.33 15.24C191.33 10.68 195.05 6.95996 199.61 6.95996C201.59 6.95996 203.39 7.61996 204.77 8.81996L209.03 4.55996C206.51 2.33996 203.21 0.959961 199.61 0.959961C191.75 0.959961 185.33 7.37996 185.33 15.3C185.33 23.22 191.75 29.64 199.61 29.64C203.21 29.64 206.51 28.32 209.03 26.1L204.77 21.84C203.33 22.86 201.53 23.52 199.61 23.52Z" fill="white"/>
<path fill-rule="evenodd" clip-rule="evenodd" d="M166.85 11.9399C164.99 11.9399 163.49 13.4399 163.49 15.2999C163.49 17.1599 164.99 18.6599 166.85 18.6599C168.71 18.6599 170.21 17.1599 170.21 15.2999C170.21 13.4399 168.71 11.9399 166.85 11.9399ZM166.85 17.8799C165.41 17.8799 164.27 16.7399 164.27 15.2999C164.27 13.8599 165.41 12.7199 166.85 12.7199C168.29 12.7199 169.43 13.8599 169.43 15.2999C169.43 16.6799 168.29 17.8799 166.85 17.8799Z" fill="white"/>
<path fill-rule="evenodd" clip-rule="evenodd" d="M175.01 15.24C175.01 19.8 171.29 23.52 166.73 23.52C162.17 23.52 158.45 19.8 158.45 15.24C158.45 10.68 162.17 6.95996 166.73 6.95996C171.29 6.95996 175.01 10.68 175.01 15.24ZM166.79 0.959961C158.87 0.959961 152.45 7.37996 152.45 15.24C152.45 23.16 158.87 29.58 166.73 29.58C174.59 29.58 181.01 23.16 181.01 15.24C181.07 7.37996 174.65 0.959961 166.79 0.959961Z" fill="white"/>
<path d="M166.91 16.9799C167.838 16.9799 168.59 16.2277 168.59 15.2999C168.59 14.372 167.838 13.6199 166.91 13.6199C165.982 13.6199 165.23 14.372 165.23 15.2999C165.23 16.2277 165.982 16.9799 166.91 16.9799Z" fill="white"/>
<path fill-rule="evenodd" clip-rule="evenodd" d="M257.27 0.959961C249.41 0.959961 242.99 7.37996 242.99 15.3C242.99 23.22 249.41 29.64 257.27 29.64C265.13 29.64 271.55 23.22 271.55 15.3C271.55 7.37996 265.13 0.959961 257.27 0.959961ZM257.27 23.52C252.71 23.52 248.99 19.8 248.99 15.24C248.99 10.68 252.71 6.95996 257.27 6.95996C261.83 6.95996 265.55 10.68 265.55 15.24C265.49 19.8 261.83 23.52 257.27 23.52Z" fill="white"/>
</svg>
