<svg width="58" height="187" viewBox="0 0 58 187" fill="none" xmlns="http://www.w3.org/2000/svg">
<g clip-path="url(#clip0)">
<path opacity="0.2" fill-rule="evenodd" clip-rule="evenodd" d="M29.1116 0.855713C91.9438 0.855713 31.7639 187.001 29.1116 187.001C26.4593 187.001 -33.714 0.855713 29.1116 0.855713Z" fill="url(#paint0_linear)"/>
<path opacity="0.2" fill-rule="evenodd" clip-rule="evenodd" d="M29.1115 185.924C31.3131 181.864 37.4996 160.988 38.3815 157.945C44.0781 138.224 48.9123 117.964 52.3747 97.7243C56.1245 75.8318 64.1533 20.6414 42.6213 5.47792C38.6036 2.65117 33.985 1.50342 29.118 1.50342C24.2511 1.50342 19.6259 2.65117 15.6083 5.47792C-5.93026 20.6414 2.09852 75.8318 5.84832 97.7243C9.31069 117.958 14.1449 138.224 19.8415 157.945C20.7234 160.988 26.91 181.864 29.1115 185.924Z" fill="url(#paint1_linear)"/>
<path opacity="0.2" fill-rule="evenodd" clip-rule="evenodd" d="M29.1114 184.343C30.0521 182.114 31.2019 178.618 31.6004 177.464C33.8868 170.813 35.9381 164.051 37.8849 157.296C43.5161 137.745 48.2981 117.669 51.7343 97.6062C55.4254 76.0613 63.4541 20.9495 42.2422 6.01566C38.3356 3.26761 33.8411 2.16577 29.1114 2.16577C24.3817 2.16577 19.8871 3.26105 15.9805 6.01566C-5.23138 20.9495 2.80393 76.0613 6.49494 97.6128C9.93118 117.669 14.7132 137.751 20.3444 157.302C22.2912 164.058 24.349 170.82 26.6289 177.47C27.0209 178.618 28.1707 182.12 29.1114 184.343Z" fill="url(#paint2_linear)"/>
<path opacity="0.2" fill-rule="evenodd" clip-rule="evenodd" d="M29.1115 182.625C29.9085 180.539 30.699 178.08 31.0844 176.958C33.3578 170.308 35.4091 163.553 37.3493 156.797C42.9283 137.371 47.6777 117.426 51.0878 97.5013C54.72 76.2974 62.7553 21.2512 41.87 6.5469C38.0745 3.87755 33.7106 2.81506 29.1115 2.81506C24.5125 2.81506 20.1551 3.87755 16.3596 6.5469C-4.52569 21.2512 3.50308 76.2974 7.1353 97.5013C10.5454 117.426 15.2947 137.371 20.8737 156.797C22.8139 163.553 24.8652 170.308 27.1386 176.958C27.5241 178.08 28.3211 180.539 29.1115 182.625Z" fill="url(#paint3_linear)"/>
<path opacity="0.2" fill-rule="evenodd" clip-rule="evenodd" d="M29.1117 180.756C29.6932 179.11 30.2223 177.47 30.5489 176.513C32.8158 169.869 34.8606 163.113 36.8008 156.365C42.3471 137.036 47.0573 117.21 50.4543 97.3898C54.0277 76.5335 62.0565 21.553 41.5044 7.08472C37.8199 4.48753 33.5802 3.47095 29.1248 3.47095C24.6629 3.47095 20.4297 4.49409 16.7452 7.08472C-3.82648 21.553 4.20883 76.5335 7.77572 97.3898C11.1728 117.21 15.8829 137.043 21.4292 156.365C23.3629 163.113 25.4142 169.862 27.6811 176.513C28.0012 177.47 28.5303 179.11 29.1117 180.756Z" fill="url(#paint4_linear)"/>
<path opacity="0.2" fill-rule="evenodd" clip-rule="evenodd" d="M29.1114 178.762C29.4576 177.726 29.7646 176.781 29.9998 176.099C32.2602 169.456 34.2984 162.713 36.2321 155.971C41.7392 136.735 46.4297 117 49.8072 97.2783C53.3153 76.7697 61.344 21.8612 41.1186 7.62255C37.5452 5.10406 33.4361 4.12683 29.1114 4.12683C24.7867 4.12683 20.6776 5.10406 17.1041 7.62255C-3.12131 21.8612 4.90746 76.7697 8.42209 97.2783C11.7995 117.007 16.4901 136.735 21.9972 155.971C23.9309 162.713 25.9691 169.456 28.2294 176.099C28.4581 176.781 28.7651 177.732 29.1114 178.762Z" fill="url(#paint5_linear)"/>
<path opacity="0.2" fill-rule="evenodd" clip-rule="evenodd" d="M29.1113 176.703C29.2289 176.342 29.3399 176.008 29.4379 175.719C31.6917 169.082 33.73 162.346 35.6571 155.61C41.1381 136.459 45.796 116.81 49.1604 97.1734C52.6162 77.0123 60.6384 22.1695 40.7462 8.16038C37.2838 5.72059 33.2988 4.78271 29.1113 4.78271C24.9238 4.78271 20.9388 5.72059 17.4764 8.16038C-2.40931 22.163 5.61292 77.0058 9.06223 97.1669C12.4266 116.81 17.091 136.453 22.5655 155.604C24.4926 162.339 26.5308 169.075 28.7847 175.712C28.8826 176.008 28.9937 176.342 29.1113 176.703Z" fill="url(#paint6_linear)"/>
<path opacity="0.2" fill-rule="evenodd" clip-rule="evenodd" d="M29.1116 174.65C31.2609 168.249 33.2207 161.756 35.076 155.263C40.5243 136.184 45.1691 116.62 48.5204 97.0619C51.911 77.2485 59.9332 22.4646 40.3741 8.69162C37.0228 6.33053 33.1684 5.43201 29.1116 5.43201C25.0547 5.43201 21.2069 6.33053 17.8556 8.69162C-1.70347 22.4646 6.31223 77.2485 9.70927 97.0554C13.0606 116.62 17.6988 136.177 23.1537 155.256C25.0025 161.756 26.9623 168.249 29.1116 174.65Z" fill="url(#paint7_linear)"/>
<path opacity="0.2" fill-rule="evenodd" clip-rule="evenodd" d="M29.1113 172.584C31.0319 166.747 32.8088 160.838 34.4943 154.928C39.9165 135.922 44.5417 116.436 47.8799 96.9439C51.2116 77.4846 59.2208 22.7598 40.0014 9.22945C36.7612 6.94706 33.0375 6.08789 29.1178 6.08789C25.1982 6.08789 21.4745 6.94706 18.2342 9.22945C-0.991708 22.7664 7.01746 77.4846 10.3492 96.9439C13.6874 116.429 18.3061 135.915 23.7283 154.928C25.4203 160.838 27.1906 166.74 29.1113 172.584Z" fill="url(#paint8_linear)"/>
<path opacity="0.2" fill-rule="evenodd" clip-rule="evenodd" d="M29.1118 170.479C30.8103 165.219 32.3912 159.913 33.9068 154.607C39.3094 135.666 43.9085 116.252 47.2337 96.8324C50.5066 77.7207 58.5092 23.0615 39.623 9.76069C36.4938 7.557 32.8942 6.73718 29.1118 6.73718C25.3293 6.73718 21.7297 7.557 18.6005 9.76069C-0.285704 23.0615 7.71694 77.7207 10.9899 96.839C14.315 116.259 18.9141 135.672 24.3167 154.613C25.8323 159.913 27.4132 165.219 29.1118 170.479Z" fill="url(#paint9_linear)"/>
<path opacity="0.2" fill-rule="evenodd" clip-rule="evenodd" d="M29.1116 168.341C30.588 163.684 31.9795 158.995 33.3187 154.299C38.6952 135.423 43.2812 116.075 46.5933 96.7274C49.8074 77.9633 57.797 23.3631 39.2505 10.305C36.2324 8.18001 32.7635 7.39954 29.1116 7.39954C25.4664 7.39954 21.9909 8.18001 18.9728 10.305C0.432795 23.3566 8.42237 77.9633 11.6365 96.7274C14.9486 116.075 19.5346 135.423 24.9111 154.299C26.2438 158.988 27.6352 163.684 29.1116 168.341Z" fill="url(#paint10_linear)"/>
<path opacity="0.2" fill-rule="evenodd" clip-rule="evenodd" d="M29.1117 166.163C30.3725 162.123 31.568 158.063 32.7243 153.997C38.0812 135.18 42.6476 115.898 45.9466 96.6159C49.102 78.206 57.0785 23.6582 38.8782 10.8362C35.9711 8.78995 32.6263 8.04883 29.1182 8.04883C25.6101 8.04883 22.2654 8.78995 19.3583 10.8362C1.14492 23.6582 9.12143 78.206 12.2768 96.6159C15.5758 115.905 20.1422 135.18 25.4991 153.997C26.6554 158.063 27.8574 162.123 29.1117 166.163Z" fill="url(#paint11_linear)"/>
<path opacity="0.2" fill-rule="evenodd" clip-rule="evenodd" d="M29.1115 163.953C30.1568 160.542 31.1563 157.125 32.1297 153.702C37.4669 134.944 42.0138 115.728 45.3063 96.5045C48.3963 78.4487 56.3597 23.9534 38.4991 11.3741C35.7031 9.40651 32.4824 8.7113 29.1115 8.7113C25.7406 8.7113 22.52 9.41307 19.724 11.3741C1.86337 23.9534 9.82681 78.4421 12.9168 96.5045C16.2093 115.728 20.7561 134.944 26.0934 153.702C27.0668 157.125 28.0728 160.542 29.1115 163.953Z" fill="url(#paint12_linear)"/>
<path opacity="0.2" fill-rule="evenodd" clip-rule="evenodd" d="M29.1119 161.703C29.9416 158.942 30.7451 156.181 31.5356 153.413C36.8467 134.715 41.3804 115.557 44.6664 96.393C47.6976 78.6848 55.648 24.242 38.1271 11.9119C35.4487 10.023 32.3522 9.36719 29.1119 9.36719C25.8782 9.36719 22.7816 10.0296 20.0967 11.9119C2.58234 24.242 10.5327 78.6848 13.5639 96.393C16.8434 115.557 21.3771 134.715 26.6948 153.413C27.4787 156.181 28.2822 158.949 29.1119 161.703Z" fill="url(#paint13_linear)"/>
<path opacity="0.2" fill-rule="evenodd" clip-rule="evenodd" d="M29.1117 159.427C29.7323 157.329 30.3399 155.23 30.9344 153.131C36.2259 134.485 40.7466 115.387 44.0195 96.2815C46.9919 78.9275 54.9227 24.5372 37.748 12.4432C35.1807 10.633 32.2083 10.0165 29.1117 10.0165C26.0152 10.0165 23.0428 10.6395 20.4754 12.4432C3.30076 24.5306 11.2315 78.9275 14.204 96.2815C17.4769 115.387 21.991 134.485 27.2891 153.131C27.8836 155.23 28.4911 157.329 29.1117 159.427Z" fill="url(#paint14_linear)"/>
<path opacity="0.2" fill-rule="evenodd" clip-rule="evenodd" d="M29.1116 0.834473C64.0227 0.834473 30.588 129.638 29.1116 129.638C27.6352 129.638 -5.79953 0.834473 29.1116 0.834473Z" fill="#EB2727"/>
<path opacity="0.2" fill-rule="evenodd" clip-rule="evenodd" d="M29.1115 128.104C29.6537 126.549 30.3266 123.972 30.5421 123.191C31.8356 118.489 32.9985 113.734 34.096 108.985C37.297 95.1272 39.9755 81.0066 41.8765 66.9056C43.5228 54.7395 50.6892 1.49036 29.1115 1.49036C27.2104 1.49036 25.3943 1.89043 23.7219 2.81519C9.25839 10.8429 14.5434 53.5786 16.3464 66.9056C18.2475 81.0066 20.9324 95.1272 24.127 108.985C25.2245 113.734 26.3808 118.489 27.6808 123.191C27.8964 123.972 28.5692 126.549 29.1115 128.104Z" fill="#EC2E2E"/>
<path opacity="0.2" fill-rule="evenodd" clip-rule="evenodd" d="M29.1116 125.979C29.4774 124.719 29.804 123.414 29.9935 122.712C31.2805 118.01 32.4368 113.255 33.5343 108.507C36.6961 94.7729 39.3484 80.79 41.2299 66.8203C42.8043 55.1526 49.9184 2.14612 29.1116 2.14612C27.3216 2.14612 25.61 2.51996 24.0421 3.39225C9.98363 11.1904 15.249 53.8736 16.9933 66.8203C18.8747 80.79 21.527 94.7729 24.6889 108.507C25.7799 113.255 26.9362 118.01 28.2297 122.712C28.4191 123.414 28.7523 124.719 29.1116 125.979Z" fill="#EC3434"/>
<path opacity="0.2" fill-rule="evenodd" clip-rule="evenodd" d="M29.1115 123.513C29.2291 123.06 29.3336 122.653 29.4251 122.319C30.7055 117.623 31.8618 112.875 32.9528 108.126C36.082 94.4844 38.7147 80.5999 40.583 66.7285C42.0921 55.5658 49.141 2.802 29.1115 2.802C27.4326 2.802 25.8321 3.14961 24.3556 3.96287C10.7152 11.5315 15.948 54.1688 17.64 66.735C19.5083 80.6064 22.141 94.4909 25.2702 108.133C26.3612 112.881 27.511 117.63 28.7979 122.326C28.8894 122.647 28.9939 123.06 29.1115 123.513Z" fill="#EC3C3A"/>
<path opacity="0.2" fill-rule="evenodd" clip-rule="evenodd" d="M29.1114 120.981C30.2808 116.613 31.3456 112.199 32.3582 107.792C35.4613 94.2286 38.0744 80.4294 39.9362 66.6432C41.38 55.9724 48.357 3.45789 29.1114 3.45789C27.5436 3.45789 26.0476 3.7727 24.6691 4.54005C11.4468 11.8791 16.6404 54.4705 18.2866 66.6432C20.1485 80.4294 22.7616 94.2352 25.8646 107.792C26.8772 112.206 27.9421 116.613 29.1114 120.981Z" fill="#ED413F"/>
<path opacity="0.2" fill-rule="evenodd" clip-rule="evenodd" d="M29.1119 118.417C30.0526 114.79 30.9214 111.137 31.7576 107.49C34.8411 93.9991 37.4411 80.272 39.2899 66.558C40.6618 56.3725 47.5539 4.11377 29.1119 4.11377C27.6551 4.11377 26.2701 4.40235 24.9897 5.11067C12.1855 12.2136 17.3464 54.7657 18.9338 66.558C20.7826 80.272 23.3826 93.9991 26.4661 107.49C27.3023 111.143 28.1777 114.79 29.1119 118.417Z" fill="#ED4745"/>
<path opacity="0.2" fill-rule="evenodd" clip-rule="evenodd" d="M29.1113 115.767C29.8233 112.921 30.4962 110.061 31.1495 107.202C34.2134 93.7761 36.7938 80.1146 38.636 66.4662C39.9491 56.7792 46.7367 4.76965 29.1113 4.76965C27.7655 4.76965 26.4851 5.032 25.3027 5.68785C12.9296 12.5547 18.0382 55.0608 19.58 66.4728C21.4222 80.1212 24.0026 93.7827 27.0665 107.208C27.7263 110.061 28.3992 112.921 29.1113 115.767Z" fill="#EE4E4C"/>
<path opacity="0.2" fill-rule="evenodd" clip-rule="evenodd" d="M29.1113 113.039C29.6012 111.006 30.0781 108.972 30.542 106.939C33.5928 93.5729 36.1601 79.9704 37.9893 66.381C39.2371 57.1793 45.907 5.42554 29.1113 5.42554C27.8766 5.42554 26.7007 5.66165 25.6163 6.26504C20.0307 9.36068 18.5739 21.0809 18.1428 26.6819C17.1498 39.5367 18.5021 53.6311 20.2267 66.3875C22.0624 79.9769 24.6298 93.5728 27.6741 106.946C28.1444 108.972 28.6213 111.006 29.1113 113.039Z" fill="#EE5452"/>
<path opacity="0.2" fill-rule="evenodd" clip-rule="evenodd" d="M29.112 110.225C29.3929 109.044 29.6672 107.857 29.9351 106.677C32.9663 93.3629 35.5206 79.826 37.3498 66.2891C39.0614 53.5785 40.4202 39.5235 39.4272 26.7212C39.0156 21.4153 37.5915 9.77378 32.2869 6.82898C31.3004 6.28462 30.2356 6.0813 29.112 6.0813C27.9883 6.0813 26.9235 6.29117 25.937 6.83554C20.6324 9.78034 19.2083 21.4218 18.7967 26.7277C17.8037 39.5301 19.1626 53.5851 20.8807 66.2956C22.7033 79.826 25.2642 93.3695 28.2954 106.683C28.5632 107.864 28.8376 109.044 29.112 110.225Z" fill="#EE5A58"/>
<path opacity="0.2" fill-rule="evenodd" clip-rule="evenodd" d="M29.1114 107.346C29.1832 107.037 29.2485 106.736 29.3204 106.428C32.3385 93.1661 34.8798 79.6817 36.7024 66.2038C38.4075 53.5457 39.7663 39.53 38.7798 26.7736C38.3944 21.7694 36.9964 10.1935 31.9792 7.40612C31.0908 6.91423 30.1305 6.73059 29.1179 6.73059C28.1118 6.73059 27.145 6.90767 26.2565 7.40612C21.2328 10.1935 19.8414 21.7694 19.4559 26.7736C18.4629 39.53 19.8152 53.5457 21.5268 66.2038C23.3429 79.6817 25.8907 93.1661 28.9088 106.428C28.9742 106.736 29.046 107.037 29.1114 107.346Z" fill="#EF615F"/>
<path opacity="0.2" fill-rule="evenodd" clip-rule="evenodd" d="M29.1115 104.388C31.9401 91.756 34.3246 78.934 36.0558 66.112C37.7543 53.4998 39.1131 39.53 38.1267 26.8195C37.7608 22.117 36.3955 10.6001 31.6592 7.97016C30.8688 7.53073 30.013 7.37988 29.118 7.37988C28.223 7.37988 27.3607 7.53073 26.5767 7.97016C21.8405 10.6001 20.4751 22.117 20.1093 26.8195C19.1229 39.53 20.4817 53.4998 22.1802 66.112C23.8983 78.934 26.2893 91.7626 29.1115 104.388Z" fill="#EF6563"/>
<path opacity="0.2" fill-rule="evenodd" clip-rule="evenodd" d="M29.1117 101.358C31.6529 89.6836 33.8153 77.8519 35.4093 66.0268C37.1013 53.4605 38.4536 39.5367 37.4736 26.8786C37.1339 22.4844 35.7817 11.02 31.3394 8.55393C30.6469 8.17353 29.8956 8.04236 29.1117 8.04236C28.3278 8.04236 27.5765 8.16697 26.884 8.55393C22.4417 11.02 21.0895 22.4844 20.7498 26.8786C19.7698 39.5367 21.1221 53.4671 22.8141 66.0268C24.4146 77.8519 26.5705 89.6836 29.1117 101.358Z" fill="#EF6D6B"/>
<path opacity="0.2" fill-rule="evenodd" clip-rule="evenodd" d="M29.1117 98.2491C31.372 87.5586 33.2992 76.7435 34.7625 65.935C36.448 53.4212 37.8003 39.5301 36.8269 26.9245C36.5068 22.8385 35.1741 11.4201 31.0258 9.12455C30.4313 8.79662 29.7846 8.69824 29.1117 8.69824C28.4453 8.69824 27.7921 8.79662 27.1976 9.12455C23.0558 11.4266 21.7166 22.8385 21.3965 26.9245C20.4231 39.5367 21.7689 53.4212 23.4608 65.935C24.9242 76.7501 26.8513 87.5586 29.1117 98.2491Z" fill="#F07270"/>
<path opacity="0.2" fill-rule="evenodd" clip-rule="evenodd" d="M29.1115 95.0485C31.0975 85.3746 32.796 75.6089 34.1156 65.8497C35.7945 53.3819 37.1468 39.5367 36.1734 26.977C35.8794 23.1993 34.5533 11.8267 30.712 9.70173C30.2221 9.43283 29.6668 9.35413 29.1115 9.35413C28.5562 9.35413 28.0075 9.42627 27.511 9.70173C23.6697 11.8333 22.3435 23.1993 22.0496 26.977C21.0762 39.5367 22.4285 53.3819 24.1074 65.8497C25.427 75.6154 27.1255 85.3746 29.1115 95.0485Z" fill="#F07876"/>
<path opacity="0.2" fill-rule="evenodd" clip-rule="evenodd" d="M29.1118 91.7495C30.8233 83.1315 32.2932 74.4479 33.4691 65.7644C35.1415 53.349 36.4938 39.5432 35.5269 27.0294C35.2591 23.5599 33.9264 12.2332 30.3987 10.2722C30.0133 10.0558 29.556 10.0099 29.1183 10.0099C28.6806 10.0099 28.2233 10.0558 27.8379 10.2722C24.3102 12.2267 22.9775 23.5599 22.7096 27.0294C21.7363 39.5432 23.082 53.349 24.7609 65.7644C25.9303 74.4414 27.4067 83.1249 29.1118 91.7495Z" fill="#F0807E"/>
<path opacity="0.2" fill-rule="evenodd" clip-rule="evenodd" d="M29.1115 88.326C30.5487 80.8033 31.7964 73.2347 32.8155 65.6727C34.4814 53.3032 35.8337 39.5433 34.8668 27.0754C34.6251 23.9207 33.2794 12.6203 30.0718 10.8429C29.7909 10.6855 29.4185 10.6593 29.1049 10.6593C28.7914 10.6593 28.419 10.6855 28.1381 10.8429C24.9305 12.6203 23.5913 23.9207 23.343 27.0754C22.3762 39.5367 23.7285 53.3032 25.3943 65.6727C26.4265 73.2413 27.6743 80.8033 29.1115 88.326Z" fill="#F18583"/>
<path opacity="0.2" fill-rule="evenodd" clip-rule="evenodd" d="M29.1118 84.7712C30.2811 78.3897 31.3068 71.9885 32.1756 65.5873C33.835 53.2638 35.1807 39.5432 34.2204 27.1278C33.9983 24.2814 32.646 13.0138 29.765 11.42C29.6017 11.3282 29.2882 11.3217 29.1183 11.3217C28.9419 11.3217 28.6349 11.3348 28.4716 11.42C25.5906 13.0203 24.2318 24.288 24.0162 27.1278C23.0559 39.5432 24.4016 53.2638 26.061 65.5873C26.9168 71.9951 27.9489 78.3963 29.1118 84.7712Z" fill="#F18B89"/>
<path opacity="0.2" fill-rule="evenodd" clip-rule="evenodd" d="M29.1119 81.0657C30.0134 75.8844 30.8235 70.6966 31.5225 65.5022C33.1687 53.2901 34.5014 39.7466 33.5868 27.4427C33.3843 24.7668 32.0712 13.5648 29.4581 12.0038C29.3667 11.9776 29.2033 11.9776 29.1119 11.9776C29.0204 11.9776 28.8571 11.971 28.7656 12.0038C26.1525 13.5648 24.8395 24.7668 24.6369 27.4427C23.7223 39.7466 25.055 53.2966 26.7013 65.5022C27.4003 70.69 28.2104 75.8844 29.1119 81.0657Z" fill="#F19191"/>
<path opacity="0.2" fill-rule="evenodd" clip-rule="evenodd" d="M29.0331 12.6333C26.5376 14.8304 25.4075 25.5471 25.2245 28.446C24.4667 40.4614 25.7406 53.4998 27.3477 65.4102C27.8768 69.3257 28.4648 73.2477 29.1115 77.1632C29.7583 73.2477 30.3462 69.3322 30.8754 65.4102C32.4824 53.4933 33.7629 40.4614 32.9985 28.446C32.8156 25.5471 31.6854 14.8239 29.1899 12.6333C29.1638 12.6333 29.1311 12.6333 29.105 12.6333C29.0919 12.6333 29.0593 12.6333 29.0331 12.6333Z" fill="#F29896"/>
<path opacity="0.2" fill-rule="evenodd" clip-rule="evenodd" d="M29.1118 13.545C26.9364 16.5292 25.9957 26.2293 25.8323 29.1151C25.166 40.9206 26.4138 53.6245 27.9882 65.325C28.3344 67.896 28.7068 70.467 29.1053 73.0379C29.5038 70.467 29.8761 67.896 30.2224 65.325C31.8033 53.6245 33.0445 40.9206 32.3782 29.1151C32.2279 26.2293 31.2872 16.5292 29.1118 13.545Z" fill="#FB9D9D"/>
</g>
<defs>
<linearGradient id="paint0_linear" x1="29.1111" y1="4.53895" x2="29.1212" y2="184.969" gradientUnits="userSpaceOnUse">
<stop stop-color="#AC0095"/>
<stop offset="1" stop-color="#EF2700"/>
</linearGradient>
<linearGradient id="paint1_linear" x1="29.1109" y1="5.15779" x2="29.1209" y2="183.913" gradientUnits="userSpaceOnUse">
<stop stop-color="#AA0098"/>
<stop offset="1" stop-color="#EF1B00"/>
</linearGradient>
<linearGradient id="paint2_linear" x1="29.1107" y1="5.76807" x2="29.1209" y2="182.359" gradientUnits="userSpaceOnUse">
<stop stop-color="#AA089C"/>
<stop offset="1" stop-color="#EE1400"/>
</linearGradient>
<linearGradient id="paint3_linear" x1="29.1111" y1="6.37565" x2="29.1211" y2="180.664" gradientUnits="userSpaceOnUse">
<stop stop-color="#A810A0"/>
<stop offset="1" stop-color="#EE0C00"/>
</linearGradient>
<linearGradient id="paint4_linear" x1="29.1111" y1="6.98057" x2="29.1214" y2="178.822" gradientUnits="userSpaceOnUse">
<stop stop-color="#A814A2"/>
<stop offset="1" stop-color="#ED0005"/>
</linearGradient>
<linearGradient id="paint5_linear" x1="29.1108" y1="7.58294" x2="29.1208" y2="176.861" gradientUnits="userSpaceOnUse">
<stop stop-color="#A61AA6"/>
<stop offset="1" stop-color="#EE000B"/>
</linearGradient>
<linearGradient id="paint6_linear" x1="29.1108" y1="8.18373" x2="29.1207" y2="174.828" gradientUnits="userSpaceOnUse">
<stop stop-color="#A01EA8"/>
<stop offset="1" stop-color="#EE0016"/>
</linearGradient>
<linearGradient id="paint7_linear" x1="29.1111" y1="8.78475" x2="29.1212" y2="172.806" gradientUnits="userSpaceOnUse">
<stop stop-color="#9B21A9"/>
<stop offset="1" stop-color="#EE001B"/>
</linearGradient>
<linearGradient id="paint8_linear" x1="29.1107" y1="9.38581" x2="29.1206" y2="170.768" gradientUnits="userSpaceOnUse">
<stop stop-color="#9525AB"/>
<stop offset="1" stop-color="#EE0025"/>
</linearGradient>
<linearGradient id="paint9_linear" x1="29.1112" y1="9.98578" x2="29.1209" y2="168.694" gradientUnits="userSpaceOnUse">
<stop stop-color="#9129AD"/>
<stop offset="1" stop-color="#EF0029"/>
</linearGradient>
<linearGradient id="paint10_linear" x1="29.1111" y1="10.585" x2="29.1209" y2="166.585" gradientUnits="userSpaceOnUse">
<stop stop-color="#8C2AAE"/>
<stop offset="1" stop-color="#EF002C"/>
</linearGradient>
<linearGradient id="paint11_linear" x1="29.1114" y1="11.1839" x2="29.121" y2="164.44" gradientUnits="userSpaceOnUse">
<stop stop-color="#8B2FAD"/>
<stop offset="1" stop-color="#EF0034"/>
</linearGradient>
<linearGradient id="paint12_linear" x1="29.1113" y1="11.7818" x2="29.121" y2="162.26" gradientUnits="userSpaceOnUse">
<stop stop-color="#8733AF"/>
<stop offset="1" stop-color="#EF003C"/>
</linearGradient>
<linearGradient id="paint13_linear" x1="29.1116" y1="12.379" x2="29.1212" y2="160.045" gradientUnits="userSpaceOnUse">
<stop stop-color="#8234B0"/>
<stop offset="1" stop-color="#EF0044"/>
</linearGradient>
<linearGradient id="paint14_linear" x1="29.1114" y1="12.9755" x2="29.121" y2="157.798" gradientUnits="userSpaceOnUse">
<stop stop-color="#7A2CB0"/>
<stop offset="1" stop-color="#F0004D"/>
</linearGradient>
<clipPath id="clip0">
<rect width="57.0507" height="186.165" fill="white" transform="translate(0.589355 0.834473)"/>
</clipPath>
</defs>
</svg>
