<svg width="61" height="224" viewBox="0 0 61 224" fill="none" xmlns="http://www.w3.org/2000/svg">
<g clip-path="url(#clip0)">
<path opacity="0.01" d="M39.9233 -0.00012207H21.1572V212.951H39.9233V-0.00012207Z" fill="#FF0000"/>
<path opacity="0.02" fill-rule="evenodd" clip-rule="evenodd" d="M21.499 -0.00012207H39.5778V212.951H21.499V-0.00012207Z" fill="#FF0000"/>
<path opacity="0.03" fill-rule="evenodd" clip-rule="evenodd" d="M21.8403 -0.00012207H39.2363V212.951H21.8403V-0.00012207Z" fill="#FF0000"/>
<path opacity="0.03" fill-rule="evenodd" clip-rule="evenodd" d="M22.1865 -0.00012207H38.8952V212.951H22.1865V-0.00012207Z" fill="#FF0500"/>
<path opacity="0.03" fill-rule="evenodd" clip-rule="evenodd" d="M22.5273 -0.00012207H38.5486V212.951H22.5273V-0.00012207Z" fill="#FF0900"/>
<path opacity="0.03" fill-rule="evenodd" clip-rule="evenodd" d="M22.8691 -0.00012207H38.2077V212.951H22.8691V-0.00012207Z" fill="#FF1100"/>
<path opacity="0.03" fill-rule="evenodd" clip-rule="evenodd" d="M23.2148 -0.00012207H37.866V212.951H23.2148V-0.00012207Z" fill="#FF1100"/>
<path opacity="0.03" fill-rule="evenodd" clip-rule="evenodd" d="M23.5566 -0.00012207H37.5205V212.951H23.5566V-0.00012207Z" fill="#FF1900"/>
<path opacity="0.03" fill-rule="evenodd" clip-rule="evenodd" d="M23.9023 -0.00012207H37.1789V212.951H23.9023V-0.00012207Z" fill="#FF1F00"/>
<path opacity="0.03" fill-rule="evenodd" clip-rule="evenodd" d="M24.2437 -0.00012207H36.8374V212.951H24.2437V-0.00012207Z" fill="#FF2200"/>
<path opacity="0.03" fill-rule="evenodd" clip-rule="evenodd" d="M24.585 -0.00012207H36.4914V212.951H24.585V-0.00012207Z" fill="#FF2600"/>
<path opacity="0.03" fill-rule="evenodd" clip-rule="evenodd" d="M24.9312 -0.00012207H36.1502V212.951H24.9312V-0.00012207Z" fill="#FF2600"/>
<path opacity="0.03" fill-rule="evenodd" clip-rule="evenodd" d="M25.2725 -0.00012207H35.8088V212.951H25.2725V-0.00012207Z" fill="#FF2600"/>
<path opacity="0.03" fill-rule="evenodd" clip-rule="evenodd" d="M25.6138 -0.00012207H35.4627V212.951H25.6138V-0.00012207Z" fill="#FF2600"/>
<path opacity="0.03" fill-rule="evenodd" clip-rule="evenodd" d="M25.9595 -0.00012207H35.1211V212.951H25.9595V-0.00012207Z" fill="#FF2600"/>
<path opacity="0.03" fill-rule="evenodd" clip-rule="evenodd" d="M26.3013 -0.00012207H34.7801V212.951H26.3013V-0.00012207Z" fill="#FF2600"/>
<path opacity="0.03" fill-rule="evenodd" clip-rule="evenodd" d="M26.6426 -0.00012207H34.4341V212.951H26.6426V-0.00012207Z" fill="#FF2600"/>
<path opacity="0.03" fill-rule="evenodd" clip-rule="evenodd" d="M26.9888 -0.00012207H34.0929V212.951H26.9888V-0.00012207Z" fill="#FF2600"/>
<path opacity="0.03" fill-rule="evenodd" clip-rule="evenodd" d="M27.3159 -0.00012207H33.7743V212.951H27.3159V-0.00012207Z" fill="#FF2600"/>
<path opacity="0.03" fill-rule="evenodd" clip-rule="evenodd" d="M27.6714 -0.00012207H33.4055V212.951H27.6714V-0.00012207Z" fill="#FF2600"/>
<path opacity="0.03" fill-rule="evenodd" clip-rule="evenodd" d="M28.0171 -0.00012207H33.0638V212.951H28.0171V-0.00012207Z" fill="#FF2600"/>
<path opacity="0.03" fill-rule="evenodd" clip-rule="evenodd" d="M28.3589 -0.00012207H32.7229V212.951H28.3589V-0.00012207Z" fill="#FF2600"/>
<g opacity="0.75">
<path opacity="0.06" fill-rule="evenodd" clip-rule="evenodd" d="M27.3159 -0.00012207H33.7743V212.951H27.3159V-0.00012207Z" fill="#FF2600"/>
<path opacity="0.06" fill-rule="evenodd" clip-rule="evenodd" d="M27.4082 -0.00012207H33.6728V212.951H27.4082V-0.00012207Z" fill="#FF2600"/>
<path opacity="0.06" fill-rule="evenodd" clip-rule="evenodd" d="M27.4819 -0.00012207H33.5943V212.951H27.4819V-0.00012207Z" fill="#FF2600"/>
<path opacity="0.06" fill-rule="evenodd" clip-rule="evenodd" d="M27.5601 -0.00012207H33.5202V212.951H27.5601V-0.00012207Z" fill="#FF2600"/>
<path opacity="0.06" fill-rule="evenodd" clip-rule="evenodd" d="M27.6343 -0.00012207H33.4422V212.951H27.6343V-0.00012207Z" fill="#FF2600"/>
<path opacity="0.06" fill-rule="evenodd" clip-rule="evenodd" d="M27.7124 -0.00012207H33.3681V212.951H27.7124V-0.00012207Z" fill="#FF2600"/>
<path opacity="0.06" fill-rule="evenodd" clip-rule="evenodd" d="M27.7773 -0.00012207H33.3131V212.951H27.7773V-0.00012207Z" fill="#FF2600"/>
<path opacity="0.06" fill-rule="evenodd" clip-rule="evenodd" d="M27.8647 -0.00012207H33.2113V212.951H27.8647V-0.00012207Z" fill="#FF2600"/>
<path opacity="0.06" fill-rule="evenodd" clip-rule="evenodd" d="M27.9434 -0.00012207H33.1377V212.951H27.9434V-0.00012207Z" fill="#FF2600"/>
<path opacity="0.06" fill-rule="evenodd" clip-rule="evenodd" d="M28.0171 -0.00012207H33.0592V212.951H28.0171V-0.00012207Z" fill="#FF2600"/>
<path opacity="0.06" fill-rule="evenodd" clip-rule="evenodd" d="M28.0952 -0.00012207H32.9851V212.951H28.0952V-0.00012207Z" fill="#FF2600"/>
<path opacity="0.06" fill-rule="evenodd" clip-rule="evenodd" d="M28.1694 -0.00012207H32.9071V212.951H28.1694V-0.00012207Z" fill="#FF2600"/>
<path opacity="0.06" fill-rule="evenodd" clip-rule="evenodd" d="M28.2388 -0.00012207H32.8519V212.951H28.2388V-0.00012207Z" fill="#FF2600"/>
<path opacity="0.06" fill-rule="evenodd" clip-rule="evenodd" d="M28.3218 -0.00012207H32.755V212.951H28.3218V-0.00012207Z" fill="#FF2600"/>
<path opacity="0.06" fill-rule="evenodd" clip-rule="evenodd" d="M28.3999 -0.00012207H32.6809V212.951H28.3999V-0.00012207Z" fill="#FF2600"/>
<path opacity="0.06" fill-rule="evenodd" clip-rule="evenodd" d="M28.4785 -0.00012207H32.6026V212.951H28.4785V-0.00012207Z" fill="#FF2600"/>
<path opacity="0.06" fill-rule="evenodd" clip-rule="evenodd" d="M28.5522 -0.00012207H32.5241V212.951H28.5522V-0.00012207Z" fill="#FF2600"/>
<path opacity="0.06" fill-rule="evenodd" clip-rule="evenodd" d="M28.6304 -0.00012207H32.45V212.951H28.6304V-0.00012207Z" fill="#FF2600"/>
<path opacity="0.06" fill-rule="evenodd" clip-rule="evenodd" d="M28.6997 -0.00012207H32.3902V212.951H28.6997V-0.00012207Z" fill="#FF2600"/>
<path opacity="0.06" fill-rule="evenodd" clip-rule="evenodd" d="M28.7827 -0.00012207H32.2979V212.951H28.7827V-0.00012207Z" fill="#FF2600"/>
<path opacity="0.06" fill-rule="evenodd" clip-rule="evenodd" d="M28.8569 -0.00012207H32.2199V212.951H28.8569V-0.00012207Z" fill="#FF2600"/>
<path opacity="0.06" fill-rule="evenodd" clip-rule="evenodd" d="M28.9351 -0.00012207H32.1642V212.951H28.9351V-0.00012207Z" fill="#FF2600"/>
</g>
<g opacity="0.75">
<path opacity="0.06" fill-rule="evenodd" clip-rule="evenodd" d="M28.8892 -0.00012207H32.1875V212.951H28.8892V-0.00012207Z" fill="#FF2600"/>
<path opacity="0.06" fill-rule="evenodd" clip-rule="evenodd" d="M28.9678 -0.00012207H32.1139V212.951H28.9678V-0.00012207Z" fill="#FF2600"/>
<path opacity="0.06" fill-rule="evenodd" clip-rule="evenodd" d="M29.0415 -0.00012207H32.0354V212.951H29.0415V-0.00012207Z" fill="#FF2600"/>
<path opacity="0.06" fill-rule="evenodd" clip-rule="evenodd" d="M29.1201 -0.00012207H31.9618V212.951H29.1201V-0.00012207Z" fill="#FF2600"/>
<path opacity="0.06" fill-rule="evenodd" clip-rule="evenodd" d="M29.1982 -0.00012207H31.8831V212.951H29.1982V-0.00012207Z" fill="#FF2600"/>
<path opacity="0.06" fill-rule="evenodd" clip-rule="evenodd" d="M29.272 -0.00012207H31.8092V212.951H29.272V-0.00012207Z" fill="#FF2600"/>
<path opacity="0.06" fill-rule="evenodd" clip-rule="evenodd" d="M29.3506 -0.00012207H31.7309V212.951H29.3506V-0.00012207Z" fill="#FF2600"/>
<path opacity="0.06" fill-rule="evenodd" clip-rule="evenodd" d="M29.4243 -0.00012207H31.6524V212.951H29.4243V-0.00012207Z" fill="#FF2600"/>
<path opacity="0.06" fill-rule="evenodd" clip-rule="evenodd" d="M29.5029 -0.00012207H31.5788V212.951H29.5029V-0.00012207Z" fill="#FF2600"/>
<path opacity="0.06" fill-rule="evenodd" clip-rule="evenodd" d="M29.5767 -0.00012207H31.5003V212.951H29.5767V-0.00012207Z" fill="#FF2600"/>
<path opacity="0.06" fill-rule="evenodd" clip-rule="evenodd" d="M29.6553 -0.00012207H31.4267V212.951H29.6553V-0.00012207Z" fill="#FF2600"/>
<path opacity="0.06" fill-rule="evenodd" clip-rule="evenodd" d="M29.7285 -0.00012207H31.3477V212.951H29.7285V-0.00012207Z" fill="#FF2600"/>
<path opacity="0.06" fill-rule="evenodd" clip-rule="evenodd" d="M29.8071 -0.00012207H31.2741V212.951H29.8071V-0.00012207Z" fill="#FF2600"/>
<path opacity="0.06" fill-rule="evenodd" clip-rule="evenodd" d="M29.8857 -0.00012207H31.1959V212.951H29.8857V-0.00012207Z" fill="#FF2600"/>
<path opacity="0.06" fill-rule="evenodd" clip-rule="evenodd" d="M29.9595 -0.00012207H31.122V212.951H29.9595V-0.00012207Z" fill="#FF2600"/>
<path opacity="0.06" fill-rule="evenodd" clip-rule="evenodd" d="M30.0381 -0.00012207H31.0437V212.951H30.0381V-0.00012207Z" fill="#FF2600"/>
<path opacity="0.06" fill-rule="evenodd" clip-rule="evenodd" d="M30.1118 -0.00012207H30.9652V212.951H30.1118V-0.00012207Z" fill="#FF2600"/>
<path opacity="0.06" fill-rule="evenodd" clip-rule="evenodd" d="M30.1899 -0.00012207H30.8911V212.951H30.1899V-0.00012207Z" fill="#FF2600"/>
<path opacity="0.06" fill-rule="evenodd" clip-rule="evenodd" d="M30.2637 -0.00012207H30.8126V212.951H30.2637V-0.00012207Z" fill="#FF2600"/>
</g>
<path opacity="0.1" fill-rule="evenodd" clip-rule="evenodd" d="M30.5729 186.552C25.3694 186.552 22.2417 191.081 20.8301 194.158C13.3984 210.393 17.7716 213.751 30.5729 213.751C43.3743 213.751 47.7521 210.393 40.3158 194.158C38.9088 191.081 35.7811 186.552 30.5729 186.552Z" fill="#FF0000"/>
<path opacity="0.1" fill-rule="evenodd" clip-rule="evenodd" d="M30.5729 186.782C25.4985 186.782 22.4262 191.223 21.0423 194.25C17.4671 202.058 16.5675 207.11 18.3113 209.925C20.055 212.74 24.4052 213.521 30.5729 213.521C36.7406 213.521 41.1092 212.717 42.8391 209.925C44.5691 207.133 43.6833 202.081 40.1082 194.273C38.7196 191.223 35.6519 186.782 30.5729 186.782Z" fill="#FF0000"/>
<path opacity="0.1" fill-rule="evenodd" clip-rule="evenodd" d="M30.5728 187.007C25.623 187.007 22.6152 191.366 21.2498 194.355C17.8176 201.846 16.7843 207.064 18.4819 209.819C20.1795 212.575 24.6219 213.305 30.5498 213.305C36.4776 213.305 40.9246 212.534 42.6176 209.819C44.3106 207.105 43.305 201.846 39.8775 194.355C38.535 191.366 35.5273 187.007 30.5728 187.007Z" fill="#FF0000"/>
<path opacity="0.1" fill-rule="evenodd" clip-rule="evenodd" d="M30.5731 187.237C25.7478 187.237 22.8 191.508 21.4576 194.438C18.1685 201.617 17.0014 206.999 18.6898 209.695C20.3781 212.391 24.8667 213.066 30.5593 213.066C36.2518 213.066 40.7727 212.336 42.4288 209.695C44.0849 207.054 42.9639 201.617 39.6609 194.438C38.3508 191.517 35.403 187.237 30.5731 187.237Z" fill="#FF0000"/>
<path opacity="0.1" fill-rule="evenodd" clip-rule="evenodd" d="M30.5727 187.462C25.872 187.462 22.9842 191.65 21.6648 194.53C18.5233 201.396 17.2224 206.93 18.897 209.576C20.5715 212.221 25.1108 212.841 30.5681 212.841C36.0254 212.841 40.6201 212.143 42.2439 209.576C43.8677 207.008 42.6222 201.396 39.476 194.53C38.1613 191.65 35.2735 187.462 30.5727 187.462Z" fill="#FF0000"/>
<path opacity="0.1" fill-rule="evenodd" clip-rule="evenodd" d="M30.5732 187.687C26.0016 187.687 23.1923 191.793 21.8729 194.626C18.8744 201.176 17.4397 206.88 19.1051 209.461C20.6873 211.95 25.3558 212.612 30.5778 212.612C35.7999 212.612 40.4683 211.95 42.0552 209.461C43.7113 206.88 42.2767 201.194 39.2874 194.626C37.9772 191.793 35.1586 187.687 30.5732 187.687Z" fill="#FF0100"/>
<path opacity="0.1" fill-rule="evenodd" clip-rule="evenodd" d="M30.5732 187.917C26.1261 187.917 23.3583 191.935 22.0851 194.718C19.2249 200.955 17.6565 206.825 19.3172 209.346C20.8672 211.757 25.6095 212.387 30.5962 212.387C35.583 212.387 40.3253 211.757 41.8753 209.346C43.5129 206.825 41.9445 200.955 39.1074 194.718C37.7927 191.935 35.0248 187.917 30.5732 187.917Z" fill="#FF0300"/>
<path opacity="0.1" fill-rule="evenodd" clip-rule="evenodd" d="M30.5729 188.141C26.2504 188.141 23.5425 192.077 22.2693 194.815C19.5568 200.739 17.8546 206.756 19.4692 209.231C20.9822 211.569 25.7983 212.157 30.5406 212.157C35.2829 212.157 40.1082 211.569 41.612 209.231C43.2312 206.765 41.529 200.739 38.8165 194.815C37.6032 192.077 34.8954 188.141 30.5729 188.141Z" fill="#FF0600"/>
<path opacity="0.1" fill-rule="evenodd" clip-rule="evenodd" d="M30.5727 188.371C26.3748 188.371 23.7315 192.22 22.4998 194.907C19.9349 200.519 18.0897 206.705 19.6904 209.117C21.1666 211.376 26.0565 211.932 30.5727 211.932C35.089 211.932 39.9788 211.376 41.4597 209.117C43.0512 206.705 41.2198 200.519 38.6503 194.907C37.4186 192.22 34.7707 188.371 30.5727 188.371Z" fill="#FF0800"/>
<path opacity="0.1" fill-rule="evenodd" clip-rule="evenodd" d="M30.5726 188.596C26.5039 188.596 23.9159 192.362 22.7073 195.003C20.2808 200.298 18.311 206.646 19.8887 208.997C21.3187 211.183 26.2963 211.725 30.5726 211.725C34.849 211.725 39.7988 211.202 41.2612 209.015C42.8342 206.664 40.8644 200.317 38.4379 195.021C37.2339 192.362 34.646 188.596 30.5726 188.596Z" fill="#FF0A00"/>
<path opacity="0.1" fill-rule="evenodd" clip-rule="evenodd" d="M30.5727 188.826C26.6285 188.826 24.1144 192.5 22.915 195.095C20.6361 200.078 18.5326 206.577 20.0826 208.873C21.4665 210.981 26.5409 211.468 30.5727 211.468C34.6046 211.468 39.6559 210.981 41.0629 208.873C42.6175 206.577 40.514 200.069 38.2305 195.095C37.0449 192.505 34.5216 188.826 30.5727 188.826Z" fill="#FF0C00"/>
<path opacity="0.1" fill-rule="evenodd" clip-rule="evenodd" d="M30.5729 189.051C26.7532 189.051 24.2899 192.647 23.1274 195.187C20.9869 199.858 18.7495 206.531 20.2811 208.768C21.665 210.802 26.7671 211.252 30.5729 211.252C34.3787 211.252 39.4946 210.793 40.8647 208.768C42.3963 206.531 40.1589 199.858 38.0231 195.187C36.8605 192.647 34.3925 189.051 30.5729 189.051Z" fill="#FF0D00"/>
<path opacity="0.1" fill-rule="evenodd" clip-rule="evenodd" d="M30.5726 189.276C26.8821 189.276 24.4741 192.789 23.3346 195.283C21.3372 199.637 18.9707 206.471 20.4791 208.653C21.8123 210.609 27.0021 211.023 30.5726 211.023C34.1431 211.023 39.3375 210.609 40.6707 208.653C42.1792 206.471 39.808 199.637 37.8152 195.283C36.6711 192.789 34.2677 189.276 30.5726 189.276Z" fill="#FF0F00"/>
<path opacity="0.1" fill-rule="evenodd" clip-rule="evenodd" d="M30.573 189.506C27.0071 189.506 24.6636 192.932 23.5427 195.375C21.6974 199.417 19.1879 206.398 20.6779 208.533C21.9742 210.416 27.2378 210.798 30.573 210.798C33.9083 210.798 39.1718 210.416 40.4727 208.533C41.9628 206.416 39.4579 199.417 37.608 195.375C36.487 192.932 34.1436 189.506 30.573 189.506Z" fill="#FF1100"/>
<path opacity="0.1" fill-rule="evenodd" clip-rule="evenodd" d="M30.5727 189.731C27.1313 189.731 24.8478 193.074 23.7499 195.472C22.0431 199.201 19.4044 206.356 20.8713 208.418C22.1353 210.223 27.4727 210.572 30.5588 210.572C33.645 210.572 38.9962 210.223 40.2463 208.418C41.7133 206.356 39.0792 199.201 37.3678 195.472C36.3021 193.074 34.0141 189.731 30.5727 189.731Z" fill="#FF1300"/>
<path opacity="0.1" fill-rule="evenodd" clip-rule="evenodd" d="M30.5729 189.96C27.2607 189.96 25.0372 193.216 23.9577 195.563C22.3939 198.98 19.626 206.297 21.0699 208.304C22.297 210.035 27.7082 210.343 30.5729 210.343C33.4376 210.343 38.8488 210.035 40.0805 208.304C41.5244 206.297 38.7519 198.98 37.1881 195.563C36.1132 193.216 33.8897 189.96 30.5729 189.96Z" fill="#FF1600"/>
<path opacity="0.1" fill-rule="evenodd" clip-rule="evenodd" d="M30.5732 190.185C27.3855 190.185 25.222 193.359 24.1702 195.66C22.7494 198.76 19.8431 206.223 21.2686 208.189C22.4587 209.842 27.9483 210.118 30.5732 210.118C33.198 210.118 38.6876 209.842 39.8824 208.189C41.3079 206.242 38.3878 198.76 37.0038 195.651C35.929 193.354 33.7747 190.185 30.5732 190.185Z" fill="#FF1800"/>
<path opacity="0.1" fill-rule="evenodd" clip-rule="evenodd" d="M30.573 190.415C27.5099 190.415 25.4064 193.506 24.3776 195.752C23.0998 198.539 20.0598 206.182 21.4668 208.069C22.6201 209.649 28.1834 209.906 30.573 209.906C32.9626 209.906 38.526 209.668 39.6839 208.069C41.0678 206.182 38.0509 198.539 36.773 195.752C35.7443 193.506 33.6361 190.415 30.573 190.415Z" fill="#FF1A00"/>
<path opacity="0.1" fill-rule="evenodd" clip-rule="evenodd" d="M30.5729 190.64C27.6389 190.64 25.5907 193.648 24.5758 195.844C23.441 198.319 20.2718 206.122 21.6511 207.955C22.7721 209.456 28.4093 209.663 30.5636 209.663C32.7179 209.663 38.3552 209.456 39.4761 207.955C40.8601 206.118 37.6863 198.31 36.556 195.844C35.555 193.648 33.5114 190.64 30.5729 190.64Z" fill="#FF1A00"/>
<path opacity="0.1" fill-rule="evenodd" clip-rule="evenodd" d="M30.5726 190.865C27.7632 190.865 25.7796 193.791 24.7923 195.94C23.8051 198.089 20.4976 206.044 21.8584 207.84C22.9425 209.268 28.6535 209.429 30.5726 209.429C32.4916 209.429 38.2026 209.264 39.2913 207.835C40.6752 206.058 37.3446 198.094 36.3528 195.935C35.361 193.777 33.3866 190.865 30.5726 190.865Z" fill="#FF1D00"/>
<path opacity="0.1" fill-rule="evenodd" clip-rule="evenodd" d="M30.573 191.095C27.8882 191.095 25.9599 193.933 25.0004 196.032C24.1562 197.869 20.7148 206.007 22.0572 207.725C23.1044 209.075 28.8892 209.208 30.573 209.208C32.2568 209.208 38.0416 209.075 39.0934 207.725C40.4312 206.007 36.9944 197.883 36.1456 196.032C35.1861 193.933 33.2578 191.095 30.573 191.095Z" fill="#FF1F00"/>
<path opacity="0.1" fill-rule="evenodd" clip-rule="evenodd" d="M30.5732 191.32C28.0175 191.32 26.1492 194.075 25.2128 196.128C24.507 197.662 20.9364 205.947 22.2558 207.61C23.266 208.882 29.1247 208.988 30.5594 208.988C31.994 208.988 37.8665 208.887 38.8629 207.61C40.1823 205.947 36.6071 197.662 35.9059 196.128C34.9972 194.075 33.1335 191.32 30.5732 191.32Z" fill="#FF2100"/>
<path opacity="0.25" fill-rule="evenodd" clip-rule="evenodd" d="M45.3671 223.698C46.3635 220.58 40.5971 215.257 30.0931 215.257C19.5891 215.257 15.5665 220.167 16.4799 223.065C12.9924 220.02 9.50025 219.023 6.00813 217.958C9.44027 218.022 12.9001 217.719 16.4476 216.153C11.8494 206.932 6.53754 198.081 0.560059 189.68C6.28491 196.367 12.1389 202.687 18.4266 207.592C19.3769 193.442 19.0447 178.713 18.5373 163.901C21.891 178.23 25.623 192.211 30.0701 205.53C34.8723 194.695 39.1948 183.305 43.2958 171.663C42.7238 183.301 42.3178 194.948 43.2958 206.568C49.6896 201.975 55.1792 195.687 60.5903 189.244C54.5947 198.307 49.3285 207.828 44.8412 217.719C48.2134 219.064 51.5855 218.339 54.9531 217.967C51.4841 218.614 48.3056 220.635 45.3671 223.698Z" fill="#FF1C00"/>
<path opacity="0.25" fill-rule="evenodd" clip-rule="evenodd" d="M9.65263 218.5C11.9053 219.268 14.0156 220.401 15.8988 221.852C16.0741 219.928 17.6702 218.32 18.7912 217.507C22.0204 215.211 26.532 214.619 30.0933 214.619C34.0282 214.619 38.646 215.376 42.2396 217.728C43.3928 218.486 45.5656 220.254 45.93 222.371C47.1969 221.13 48.6131 220.051 50.1464 219.156C48.3147 219.29 46.4758 219.023 44.7583 218.376L44.1494 218.155L44.4723 217.439C47.9362 209.787 51.8741 202.357 56.2634 195.191C52.2777 199.688 48.1305 203.876 43.5312 207.178L42.9408 207.606L42.8623 206.687C41.972 196.124 42.2257 185.473 42.7055 174.868C38.9412 185.432 34.9416 195.848 30.49 205.888L30.0287 206.903L29.6689 205.824C25.614 193.708 22.2003 181.197 19.151 168.553C19.557 181.569 19.7553 194.705 18.8834 207.665L18.8189 208.648L18.1961 208.189C13.726 204.6 9.5601 200.65 5.74072 196.381C9.80438 202.653 13.51 209.148 16.8398 215.836L17.1904 216.543L16.6 216.805C14.3954 217.752 12.0472 218.324 9.65263 218.5Z" fill="#FF1C00"/>
<path opacity="0.25" fill-rule="evenodd" clip-rule="evenodd" d="M12.0559 218.817C13.3052 219.396 14.4935 220.097 15.6033 220.911C16.0923 219.175 17.4486 217.76 18.5788 216.956C21.8679 214.582 26.4487 213.994 30.1115 213.994C34.1203 213.994 38.7934 214.77 42.4562 217.168C42.8763 217.449 43.2784 217.756 43.6602 218.086L44.1215 217.113C46.8755 210.885 49.9202 204.988 53.2047 199.325C50.3176 202.412 47.1521 205.228 43.7479 207.739L42.5392 208.584L42.3824 206.747C41.5797 197.166 41.7043 187.549 42.0918 177.95C38.6319 187.558 34.9461 197.029 30.8819 206.214L29.9593 208.244L29.2351 206.085C25.6138 195.306 22.5092 184.201 19.7182 172.958C20.0273 184.55 20.0965 196.206 19.3215 207.725L19.1877 209.691L17.9468 208.722C14.7963 206.225 11.8115 203.528 9.01123 200.648C11.9021 205.397 14.6269 210.331 17.1856 215.45L17.8914 216.869L16.7059 217.393C15.21 218.051 13.6415 218.532 12.0328 218.826L12.0559 218.817ZM44.6105 218.982C45.7251 219.422 46.9017 219.687 48.098 219.767C47.416 220.266 46.7615 220.801 46.1375 221.37C45.7912 220.482 45.2723 219.67 44.6105 218.982Z" fill="#FF1C00"/>
<path opacity="0.25" fill-rule="evenodd" clip-rule="evenodd" d="M13.8458 219.074C14.3624 219.372 14.8791 219.694 15.3911 220.047C15.6737 219.367 16.0511 218.73 16.5121 218.155C15.6461 218.523 14.7551 218.83 13.8458 219.074ZM18.2697 216.465L18.362 216.396C21.7249 213.967 26.3657 213.36 30.0931 213.36C34.1711 213.36 38.9087 214.155 42.6361 216.575C42.9037 216.75 43.1897 216.956 43.4895 217.191L43.6879 216.731C45.9083 211.811 48.2856 207.065 50.8197 202.494C48.6753 204.585 46.3829 206.521 43.9601 208.285L42.1748 209.567L41.9441 206.811C41.3001 198.207 41.1645 189.573 41.5382 180.954C38.3413 189.68 34.9645 198.236 31.274 206.558L29.927 209.599L28.8383 206.361C25.6368 196.831 22.8413 187.044 20.3041 177.137C20.5163 187.37 20.4886 197.635 19.8013 207.794L19.6029 210.738L17.7577 209.287C15.6495 207.638 13.6059 205.847 11.6084 203.954C13.6966 207.564 15.6956 211.28 17.6054 215.101L18.2882 216.479L18.2697 216.465ZM46.0913 220.139C46.1605 220.268 46.2297 220.392 46.2897 220.52L46.6034 220.249L46.0913 220.139Z" fill="#FF1C00"/>
<path opacity="0.25" fill-rule="evenodd" clip-rule="evenodd" d="M18.4175 215.624C21.8266 213.296 26.3935 212.703 30.084 212.703C34.2358 212.703 39.0334 213.516 42.8254 216.001C42.9822 216.102 43.1483 216.217 43.319 216.341C45.0597 212.492 46.8941 208.749 48.8224 205.112C47.3367 206.442 45.7815 207.693 44.1632 208.859L41.7874 210.568L41.4784 206.894C40.8881 199.22 40.7217 191.52 40.9802 183.829C38.0647 191.637 34.9831 199.371 31.6617 206.875L29.8626 210.935L28.4095 206.618C25.6139 198.259 23.1182 189.708 20.8578 181.05C20.9824 189.997 20.8855 198.962 20.2858 207.835L20.0228 211.762L17.541 209.824C16.2539 208.818 14.9946 207.762 13.749 206.659C15.216 209.29 16.6307 211.976 17.9931 214.72L18.4175 215.624Z" fill="#FF1C00"/>
<path opacity="0.25" fill-rule="evenodd" clip-rule="evenodd" d="M18.574 214.812C21.9001 212.708 26.1534 212.102 29.7423 212.056L28.0032 206.871C25.5675 199.633 23.367 192.243 21.3188 184.761C21.3696 192.491 21.2266 200.22 20.7099 207.895L20.3962 212.804L17.2916 210.38C16.7196 209.92 16.1522 209.461 15.5894 209.002C16.5335 210.762 17.4561 212.546 18.3572 214.352L18.5833 214.812H18.574ZM29.9084 212.056H30.0837C34.3047 212.056 39.1623 212.892 43.0004 215.413L43.1296 215.5C44.3997 212.717 45.716 209.992 47.0784 207.325C46.205 208.06 45.3069 208.761 44.3843 209.429L41.4135 211.56L41.026 206.967C40.4964 200.193 40.3101 193.396 40.4678 186.603C37.8245 193.593 35.0428 200.487 32.0627 207.211L29.9084 212.056Z" fill="#FF1C00"/>
<path opacity="0.25" fill-rule="evenodd" clip-rule="evenodd" d="M18.74 214.022C19.1793 213.762 19.6321 213.526 20.0963 213.314L17.25 211.091C17.7482 212.056 18.2418 213.027 18.7308 214.003L18.74 214.022ZM20.8574 212.984C23.4736 212.002 26.241 211.48 29.0365 211.44L27.5833 207.133C25.4982 200.928 23.5884 194.622 21.8031 188.243C21.8031 194.824 21.6232 201.401 21.1804 207.936L20.8574 212.984ZM30.7433 211.431C34.7936 211.509 39.3145 212.35 43.0003 214.692C43.8368 212.855 44.6964 211.052 45.579 209.282C45.2561 209.525 44.9332 209.741 44.6103 209.994L41.0444 212.557L40.5831 207.045C40.0848 201.13 39.9372 195.205 39.9834 189.281C37.6076 195.467 35.1165 201.575 32.4686 207.546L30.7433 211.431Z" fill="#FF1C00"/>
<path opacity="0.25" fill-rule="evenodd" clip-rule="evenodd" d="M18.9064 213.227L18.9941 213.177L18.8096 213.034L18.9064 213.227ZM21.3652 212.125C23.6062 211.363 25.9463 210.928 28.3126 210.834L27.1639 207.417C25.4201 202.206 23.7794 196.924 22.2417 191.572C22.1864 197.084 22.0064 202.554 21.6374 208.014L21.3606 212.125H21.3652ZM31.5417 210.807C34.6475 210.908 37.7098 211.563 40.5834 212.74L40.1221 207.096C39.6931 202.007 39.5224 196.918 39.5085 191.825C37.3896 197.26 35.1707 202.609 32.8518 207.872L31.5417 210.807ZM41.303 213.103C41.8192 213.345 42.3227 213.614 42.8115 213.907C43.2513 212.951 43.6988 212.001 44.1539 211.055L41.303 213.103Z" fill="#FF1C00"/>
<path opacity="0.25" fill-rule="evenodd" clip-rule="evenodd" d="M21.8867 211.293C23.7444 210.722 25.6624 210.367 27.6023 210.237L26.7443 207.688C25.3112 203.402 23.9503 199.075 22.6617 194.709C22.5787 199.173 22.3926 203.628 22.1035 208.074L21.8867 211.289V211.293ZM32.3492 210.228C34.9822 210.387 37.5761 210.94 40.0439 211.868L39.6518 207.183C39.2919 202.893 39.112 198.599 39.0567 194.3C37.2114 199 35.2739 203.636 33.2442 208.207L32.3492 210.228ZM42.4427 212.984L42.6318 213.094C42.6872 212.97 42.7425 212.85 42.8025 212.726L42.4427 212.984Z" fill="#FF1C00"/>
<path opacity="0.25" fill-rule="evenodd" clip-rule="evenodd" d="M22.4033 210.485C23.8726 210.074 25.3766 209.797 26.8965 209.658L26.3291 207.955C25.1912 204.565 24.0994 201.142 23.0538 197.685C22.9523 201.176 22.7954 204.657 22.5602 208.134L22.4033 210.485ZM33.1426 209.654C35.3124 209.844 37.4504 210.299 39.5087 211.009L39.195 207.256C38.8998 203.729 38.7337 200.202 38.6368 196.693C37.0315 200.692 35.3646 204.646 33.6362 208.556L33.1426 209.654Z" fill="#FF1C00"/>
<path opacity="0.25" fill-rule="evenodd" clip-rule="evenodd" d="M22.9194 209.695C23.9983 209.424 25.094 209.223 26.1993 209.094L25.9318 208.226C25.0737 205.675 24.2449 203.108 23.4453 200.524C23.35 203.083 23.2162 205.64 23.044 208.194L22.9425 209.695H22.9194ZM33.9309 209.098C35.6423 209.295 37.3308 209.655 38.973 210.173L38.7331 207.33C38.5025 204.538 38.3395 201.747 38.2441 198.958C36.8817 202.298 35.4763 205.603 34.0278 208.873L33.9309 209.098Z" fill="#FF1C00"/>
<path opacity="0.25" fill-rule="evenodd" clip-rule="evenodd" d="M23.4365 208.924C24.1239 208.768 24.8205 208.644 25.5078 208.543V208.492C24.9235 206.747 24.3499 204.992 23.7871 203.229C23.7072 204.904 23.6103 206.577 23.4965 208.249L23.455 208.924H23.4365ZM34.6971 208.556C35.958 208.738 37.2049 209.005 38.4291 209.355L38.263 207.404C38.0877 205.325 37.9524 203.241 37.8571 201.153C36.8391 203.642 35.7858 206.11 34.6971 208.556Z" fill="#FF1C00"/>
<path opacity="0.25" fill-rule="evenodd" clip-rule="evenodd" d="M23.9487 208.166L24.8206 208.005C24.5761 207.28 24.3362 206.545 24.0963 205.814C24.0502 206.6 24.0041 207.381 23.9487 208.166ZM35.4815 208.037C36.2934 208.175 37.1053 208.345 37.908 208.561L37.8203 207.482C37.7004 206.076 37.6035 204.675 37.5205 203.275C36.85 204.867 36.1704 206.459 35.4815 208.051V208.037Z" fill="#FF1C00"/>
<path opacity="0.25" fill-rule="evenodd" clip-rule="evenodd" d="M36.2378 207.532C36.6207 207.605 36.999 207.688 37.3772 207.775V207.555C37.3173 206.811 37.2573 206.067 37.2066 205.323C36.8806 206.064 36.5576 206.8 36.2378 207.532Z" fill="#FF1C00"/>
</g>
<defs>
<clipPath id="clip0">
<rect width="60.0533" height="223.699" fill="white" transform="translate(0.560059 -0.00012207)"/>
</clipPath>
</defs>
</svg>
