<svg width="260" height="38" viewBox="0 0 260 38" fill="none" xmlns="http://www.w3.org/2000/svg">
<path d="M37.8379 8.1001H52.0939V9.9901H46.0999V27.0001H43.8319V9.9901H37.8379V8.1001Z" fill="white"/>
<path d="M66.7441 25.1101V27.0001H54.6481V8.1001H66.7441V9.9901H56.9161V16.4701H65.2321V18.3601H56.9161V25.1101H66.7441Z" fill="white"/>
<path d="M72.4154 25.1101H82.7294V27.0001H69.9854V25.0021L79.6244 10.5571C79.8404 10.3231 80.0294 10.1791 80.1914 10.1251V9.9901H70.0394V8.1001H82.6754V10.1521L72.9824 24.5431C72.8204 24.7771 72.6314 24.9211 72.4154 24.9751V25.1101Z" fill="white"/>
<path d="M89.2235 8.1001H99.1055C99.5375 8.1001 99.9695 8.2801 100.402 8.6401L101.05 9.1801C101.482 9.5401 101.698 9.9901 101.698 10.5301V24.5701C101.698 25.1101 101.482 25.5601 101.05 25.9201L100.402 26.4601C99.9695 26.8201 99.5375 27.0001 99.1055 27.0001H89.2235C88.7915 27.0001 88.3595 26.8201 87.9275 26.4601L87.2795 25.9201C86.8475 25.5601 86.6315 25.1101 86.6315 24.5701V10.5301C86.6315 9.9901 86.8475 9.5401 87.2795 9.1801L87.9275 8.6401C88.3595 8.2801 88.7915 8.1001 89.2235 8.1001ZM99.4295 24.0031V11.0971C99.4295 10.8271 99.4115 10.6561 99.3755 10.5841C99.3575 10.4941 99.2675 10.3861 99.1055 10.2601C98.9435 10.1341 98.8175 10.0621 98.7275 10.0441C98.6375 10.0081 98.4305 9.9901 98.1065 9.9901H90.2225C89.8985 9.9901 89.6915 10.0081 89.6015 10.0441C89.5115 10.0621 89.3855 10.1341 89.2235 10.2601C89.0615 10.3861 88.9625 10.4941 88.9265 10.5841C88.9085 10.6561 88.8995 10.8271 88.8995 11.0971V24.0031C88.8995 24.2731 88.9085 24.4531 88.9265 24.5431C88.9625 24.6151 89.0615 24.7141 89.2235 24.8401C89.3855 24.9661 89.5115 25.0471 89.6015 25.0831C89.6915 25.1011 89.8985 25.1101 90.2225 25.1101H98.1065C98.4305 25.1101 98.6375 25.1011 98.7275 25.0831C98.8175 25.0471 98.9435 24.9661 99.1055 24.8401C99.2675 24.7141 99.3575 24.6151 99.3755 24.5431C99.4115 24.4531 99.4295 24.2731 99.4295 24.0031Z" fill="white"/>
<path d="M115.732 18.3601H109.279C108.847 18.3601 108.415 18.1801 107.983 17.8201L107.254 17.1991C106.876 16.8931 106.687 16.5331 106.687 16.1191V10.5301C106.687 9.9901 106.903 9.5401 107.335 9.1801L107.983 8.6401C108.415 8.2801 108.847 8.1001 109.279 8.1001H116.461C116.893 8.1001 117.325 8.2801 117.757 8.6401L118.405 9.1801C118.837 9.5401 119.053 9.9901 119.053 10.5301V11.6101H116.785V11.0971C116.785 10.8271 116.767 10.6561 116.731 10.5841C116.713 10.4941 116.623 10.3861 116.461 10.2601C116.299 10.1341 116.173 10.0621 116.083 10.0441C115.993 10.0081 115.786 9.9901 115.462 9.9901H110.278C109.954 9.9901 109.747 10.0081 109.657 10.0441C109.567 10.0621 109.441 10.1341 109.279 10.2601C109.117 10.3861 109.018 10.4941 108.982 10.5841C108.964 10.6561 108.955 10.8271 108.955 11.0971V15.3631C108.955 15.6331 108.964 15.8131 108.982 15.9031C109.018 15.9751 109.117 16.0741 109.279 16.2001C109.441 16.3261 109.567 16.4071 109.657 16.4431C109.747 16.4611 109.954 16.4701 110.278 16.4701H116.731C117.163 16.4701 117.595 16.6501 118.027 17.0101L118.675 17.5501C119.107 17.9101 119.323 18.3601 119.323 18.9001V24.5701C119.323 25.1101 119.107 25.5601 118.675 25.9201L118.027 26.4601C117.595 26.8201 117.163 27.0001 116.731 27.0001H109.009C108.577 27.0001 108.145 26.8201 107.713 26.4601L107.065 25.9201C106.633 25.5601 106.417 25.1101 106.417 24.5701V23.4901H108.685V24.0031C108.685 24.2731 108.694 24.4531 108.712 24.5431C108.748 24.6151 108.847 24.7141 109.009 24.8401C109.171 24.9661 109.297 25.0471 109.387 25.0831C109.477 25.1011 109.684 25.1101 110.008 25.1101H115.732C116.056 25.1101 116.263 25.1011 116.353 25.0831C116.443 25.0471 116.569 24.9661 116.731 24.8401C116.893 24.7141 116.983 24.6151 117.001 24.5431C117.037 24.4531 117.055 24.2731 117.055 24.0031V19.4671C117.055 19.1971 117.037 19.0261 117.001 18.9541C116.983 18.8641 116.893 18.7561 116.731 18.6301C116.569 18.5041 116.443 18.4321 116.353 18.4141C116.263 18.3781 116.056 18.3601 115.732 18.3601Z" fill="white"/>
<path d="M129.447 27.0001L135.927 8.1001H139.113L145.728 27.0001H143.46L142.056 23.0851H133.065L131.715 27.0001H129.447ZM137.574 9.7201H137.466C137.466 9.9361 137.403 10.1971 137.277 10.5031L133.632 21.3301H141.489L137.763 10.5031C137.637 10.1971 137.574 9.9361 137.574 9.7201Z" fill="white"/>
<path d="M163.659 11.6101H161.391V11.0971C161.391 10.8271 161.373 10.6561 161.337 10.5841C161.319 10.4941 161.229 10.3861 161.067 10.2601C160.905 10.1341 160.779 10.0621 160.689 10.0441C160.599 10.0081 160.392 9.9901 160.068 9.9901H153.372C153.048 9.9901 152.841 10.0081 152.751 10.0441C152.661 10.0621 152.535 10.1341 152.373 10.2601C152.211 10.3861 152.112 10.4941 152.076 10.5841C152.058 10.6561 152.049 10.8271 152.049 11.0971V24.0031C152.049 24.2731 152.058 24.4531 152.076 24.5431C152.112 24.6151 152.211 24.7141 152.373 24.8401C152.535 24.9661 152.661 25.0471 152.751 25.0831C152.841 25.1011 153.048 25.1101 153.372 25.1101H160.068C160.392 25.1101 160.599 25.1011 160.689 25.0831C160.779 25.0471 160.905 24.9661 161.067 24.8401C161.229 24.7141 161.319 24.6151 161.337 24.5431C161.373 24.4531 161.391 24.2731 161.391 24.0031V23.4901H163.659V24.5701C163.659 25.1101 163.443 25.5601 163.011 25.9201L162.363 26.4601C161.931 26.8201 161.499 27.0001 161.067 27.0001H152.373C151.941 27.0001 151.509 26.8201 151.077 26.4601L150.429 25.9201C149.997 25.5601 149.781 25.1101 149.781 24.5701V10.5301C149.781 9.9901 149.997 9.5401 150.429 9.1801L151.077 8.6401C151.509 8.2801 151.941 8.1001 152.373 8.1001H161.067C161.499 8.1001 161.931 8.2801 162.363 8.6401L163.011 9.1801C163.443 9.5401 163.659 9.9901 163.659 10.5301V11.6101Z" fill="white"/>
<path d="M166.334 27.0001L172.814 8.1001H176L182.615 27.0001H180.347L178.943 23.0851H169.952L168.602 27.0001H166.334ZM174.461 9.7201H174.353C174.353 9.9361 174.29 10.1971 174.164 10.5031L170.519 21.3301H178.376L174.65 10.5031C174.524 10.1971 174.461 9.9361 174.461 9.7201Z" fill="white"/>
<path d="M186.669 27.0001V8.1001H196.659C197.127 8.1001 197.559 8.2801 197.955 8.6401L200.547 10.8001C200.979 11.1601 201.195 11.5201 201.195 11.8801V23.2201C201.195 23.5801 200.979 23.9401 200.547 24.3001L197.955 26.4601C197.559 26.8201 197.127 27.0001 196.659 27.0001H186.669ZM198.927 22.4101V12.6901C198.927 12.3301 198.711 11.9701 198.279 11.6101L196.983 10.5301C196.587 10.1701 196.155 9.9901 195.687 9.9901H188.937V25.1101H195.687C196.155 25.1101 196.587 24.9301 196.983 24.5701L198.279 23.4901C198.711 23.1301 198.927 22.7701 198.927 22.4101Z" fill="white"/>
<path d="M218.013 25.1101V27.0001H205.917V8.1001H218.013V9.9901H208.185V16.4701H216.501V18.3601H208.185V25.1101H218.013Z" fill="white"/>
<path d="M224.899 9.7201L224.818 9.7471C224.944 10.1791 225.007 10.6111 225.007 11.0431V27.0001H222.739V8.1001H226.411L232.189 23.1931C232.297 23.4991 232.351 23.7511 232.351 23.9491H232.459C232.459 23.7511 232.513 23.4991 232.621 23.1931L238.426 8.1001H242.071V27.0001H239.803V11.0431C239.803 10.6111 239.866 10.1791 239.992 9.7471L239.911 9.7201L233.269 27.0001H231.541C230.713 24.9661 229.921 22.9951 229.165 21.0871C228.427 19.1791 227.815 17.5861 227.329 16.3081C226.843 15.0121 226.42 13.8781 226.06 12.9061C225.7 11.9161 225.421 11.1511 225.223 10.6111C225.025 10.0711 224.917 9.7741 224.899 9.7201Z" fill="white"/>
<path d="M252.547 16.3621L256.894 8.1001H259.486L253.276 19.1161V27.0001H251.008V19.1161L244.798 8.1001H247.39L251.737 16.3621C251.953 16.7401 252.07 17.0191 252.088 17.1991H252.196C252.214 17.0911 252.331 16.8121 252.547 16.3621Z" fill="white"/>
<path d="M14.922 9.18545L14.5001 8.52174L14.0781 9.18545L5.73556 22.3081H0.910356L14.5 0.931966L28.0896 22.3081H23.2646L14.922 9.18545ZM14.5 33.4373L2.05802 27.0124H6.00995H6.06709L6.12275 26.9995L14.4999 25.0595L22.877 26.9995L22.9326 27.0124H22.9898H26.942L14.5 33.4373Z" fill="#002C45" fill-opacity="0.6" stroke="#0A5688"/>
</svg>
