<svg width="327" height="452" viewBox="0 0 327 452" fill="none" xmlns="http://www.w3.org/2000/svg">
<path d="M268.52 284.123L268.521 284.125C273.925 297.651 276.675 314.001 276.675 333.511C276.675 351.496 274.396 367.368 269.303 381.3C264.213 395.225 256.473 405.914 246.025 413.006C235.556 420.111 223.921 423.703 210.71 423.703C201.304 423.703 191.982 422.501 182.662 419.7C173.653 416.993 166.898 412.803 162.623 407.238C167.593 405.503 172.074 401.991 175.518 397.301C179.139 392.447 181.128 385.898 181.128 377.851C181.128 371.33 179.533 365.697 177.132 361.199C174.727 356.695 171.199 353.086 166.79 350.625C162.354 347.745 156.819 346.53 150.467 346.53C144.08 346.53 138.563 348.162 134.159 350.617C129.747 353.076 126.217 356.682 123.81 361.184C120.994 365.714 119.806 371.445 119.806 377.851C119.806 396.025 126.878 412.478 141.438 428.164C156.062 443.921 179.301 451.5 211.025 451.5C232.594 451.5 252.594 447.059 271.095 437.849C289.945 428.623 303.726 414.133 312.749 395.288L312.749 395.287C321.758 376.389 326.5 355.956 326.5 333.913C326.5 323.886 324.918 313.065 322.554 300.665C320.177 288.195 314.635 275.344 306.426 261.713C298.186 248.03 286.382 237.184 271.026 229.579C256.177 221.59 242.395 217.533 230.162 217.533H230.135L230.108 217.536C223.483 218.256 217.098 219.619 211.069 221.914L321.161 108.86L321.501 108.51L321.16 108.161L303.205 89.8134L303.057 89.6626L302.846 89.6631L120.727 90.0643V10.1738V9.8709L120.459 9.73065L102.897 0.556826L102.789 0.5H102.666L55.731 0.5L55.231 0.5V1V14.5998V14.8037L55.3737 14.9495L71.296 31.22V90.4678H1H0.5V90.9678L0.5 117.363V117.863H1H70.9022L70.9022 258.833C70.9022 279.29 76.7601 295.839 88.2063 307.942L88.2123 307.948C100.091 320.087 120.661 326.044 150.782 326.044C163.017 326.044 174.058 322.388 184.291 315.579C194.546 308.756 202.4 298.692 207.943 285.42L207.969 285.357L207.978 285.29C208.159 283.847 208.424 282.558 208.66 281.416L208.71 281.174C208.953 279.991 209.163 278.931 209.163 278.065C209.163 274.322 207.937 271.071 205.502 268.168L205.465 268.124L205.42 268.09C202.704 266.049 200.629 265.173 198.504 265.173C197.178 265.173 196.29 265.639 195.097 266.45C194.608 266.71 194.167 267.183 193.766 267.747C193.356 268.322 192.955 269.04 192.561 269.841C187.158 277.357 180.899 284.067 173.553 289.658C166.221 295.157 158.843 297.925 150.782 297.925C140.759 297.925 133.133 294.362 128.124 286.962C123.154 279.422 120.806 269.951 120.806 258.43L120.806 117.863L257.288 117.863L158.175 252.904L158.078 253.036V253.2L158.078 264.385V265.186L158.798 264.834L180.848 254.051L180.86 254.045L180.871 254.039C192.983 247.288 202.654 243.721 210.71 243.721C223.139 243.721 234.385 246.914 244.854 253.621L244.854 253.621L244.866 253.628C255.299 259.913 263.035 270.191 268.52 284.123Z" fill="#002C45" fill-opacity="0.6" stroke="#0A5688"/>
</svg>
