<svg width="1440" height="75" viewBox="0 0 1440 75" fill="none" xmlns="http://www.w3.org/2000/svg">
<g opacity="0.6" clip-path="url(#clip0)">
<path fill-rule="evenodd" clip-rule="evenodd" d="M97.3589 75H393.547L427.652 0H131.464L97.3589 75ZM160.266 25.0639V5.3969H154.093V25.269C154.038 28.9057 152.281 30.724 148.822 30.724C147.168 30.724 145.869 30.2797 144.926 29.391C143.996 28.4887 143.531 27.06 143.531 25.1049V5.3969H137.379V25.2895C137.42 28.516 138.466 31.0522 140.517 32.8979C142.567 34.7436 145.336 35.6664 148.822 35.6664C152.363 35.6664 155.152 34.7162 157.189 32.8158C159.24 30.9155 160.266 28.3315 160.266 25.0639ZM183.439 35.2563H189.592V5.3969H183.46V25.0844L171.463 5.3969H165.311V35.2563H171.463V15.6098L183.439 35.2563ZM194.965 5.3969V35.2563H204.214C206.825 35.2426 209.17 34.641 211.248 33.4516C213.326 32.2621 214.933 30.5873 216.067 28.4272C217.216 26.267 217.79 23.7992 217.79 21.0238V19.6498C217.79 16.8744 217.209 14.3998 216.047 12.226C214.885 10.0385 213.265 8.35686 211.187 7.18108C209.122 5.99162 206.777 5.3969 204.152 5.3969H194.965ZM201.117 30.3139V10.3803H204.152C206.572 10.3803 208.411 11.1664 209.669 12.7387C210.927 14.2973 211.556 16.5942 211.556 19.6293V21.2084C211.528 24.1342 210.879 26.3832 209.607 27.9555C208.336 29.5278 206.497 30.3139 204.091 30.3139H201.117ZM228.434 22.3158H240.246V17.4965H228.434V10.3803H242.256V5.3969H222.281V35.2563H242.297V30.3139H228.434V22.3158ZM252.059 24.3256H256.96L262.559 35.2563H269.162V34.9692L262.702 22.767C264.493 21.9604 265.826 20.8803 266.701 19.5268C267.59 18.1596 268.034 16.4574 268.034 14.4203C268.034 11.5492 267.077 9.32756 265.163 7.7553C263.249 6.18303 260.528 5.3969 257.001 5.3969H245.906V35.2563H252.059V24.3256ZM257.021 19.3422H252.059V10.3803H257.001C258.655 10.3803 259.879 10.7836 260.672 11.5903C261.479 12.3969 261.882 13.5043 261.882 14.9125C261.882 16.2934 261.458 17.3803 260.61 18.1733C259.763 18.9526 258.566 19.3422 257.021 19.3422ZM143.736 63.1039H154.523L156.595 69.2563H163.137L151.96 39.3969H146.259L135.144 69.2563H141.686L143.736 63.1039ZM152.862 58.1205H145.397L149.109 46.9438L152.862 58.1205ZM176.795 44.3803H185.941V39.3969H161.619V44.3803H170.643V69.2563H176.795V44.3803ZM203.127 44.3803H212.273V39.3969H187.951V44.3803H196.975V69.2563H203.127V44.3803ZM219.41 63.1039H230.197L232.269 69.2563H238.811L227.634 39.3969H221.933L210.817 69.2563H217.359L219.41 63.1039ZM228.536 58.1205H221.071L224.783 46.9438L228.536 58.1205ZM261.021 66.8979C263.167 65.0522 264.356 62.5229 264.589 59.31H258.437C258.3 61.1283 257.76 62.475 256.816 63.35C255.887 64.2113 254.472 64.642 252.571 64.642C250.466 64.642 248.921 63.8969 247.937 62.4067C246.966 60.9164 246.48 58.558 246.48 55.3315V53.0756C246.508 49.9858 247.027 47.7094 248.039 46.2465C249.064 44.7699 250.603 44.0317 252.653 44.0317C254.54 44.0317 255.941 44.4692 256.857 45.3442C257.787 46.2055 258.327 47.6 258.478 49.5278H264.63C264.302 46.1918 263.085 43.601 260.979 41.7553C258.874 39.9096 256.099 38.9867 252.653 38.9867C250.165 38.9867 247.978 39.5746 246.091 40.7504C244.218 41.9125 242.775 43.5873 241.764 45.7748C240.752 47.9623 240.246 50.4916 240.246 53.3627V55.1879C240.246 59.686 241.34 63.227 243.527 65.811C245.729 68.3813 248.743 69.6664 252.571 69.6664C256.071 69.6664 258.888 68.7436 261.021 66.8979ZM274.781 60.725L277.98 57.2797L285.65 69.2563H292.972L282.062 52.6655L292.664 39.3969H285.097L277.488 49.2201L274.781 52.9321V39.3969H268.629V69.2563H274.781V60.725Z" fill="#FF0000"/>
<path fill-rule="evenodd" clip-rule="evenodd" d="M1007.23 75H1303.42L1337.52 0H1041.33L1007.23 75ZM1070.27 25.0639V5.3969H1064.09V25.269C1064.04 28.9057 1062.28 30.724 1058.82 30.724C1057.17 30.724 1055.87 30.2797 1054.93 29.391C1054 28.4887 1053.53 27.06 1053.53 25.1049V5.3969H1047.38V25.2895C1047.42 28.516 1048.47 31.0522 1050.52 32.8979C1052.57 34.7436 1055.34 35.6664 1058.82 35.6664C1062.36 35.6664 1065.15 34.7162 1067.19 32.8158C1069.24 30.9155 1070.27 28.3315 1070.27 25.0639ZM1093.44 35.2563H1099.59V5.3969H1093.46V25.0844L1081.46 5.3969H1075.31V35.2563H1081.46V15.6098L1093.44 35.2563ZM1104.96 5.3969V35.2563H1114.21C1116.83 35.2426 1119.17 34.641 1121.25 33.4516C1123.33 32.2621 1124.93 30.5873 1126.07 28.4272C1127.22 26.267 1127.79 23.7992 1127.79 21.0238V19.6498C1127.79 16.8744 1127.21 14.3998 1126.05 12.226C1124.88 10.0385 1123.26 8.35686 1121.19 7.18108C1119.12 5.99162 1116.78 5.3969 1114.15 5.3969H1104.96ZM1111.12 30.3139V10.3803H1114.15C1116.57 10.3803 1118.41 11.1664 1119.67 12.7387C1120.93 14.2973 1121.56 16.5942 1121.56 19.6293V21.2084C1121.53 24.1342 1120.88 26.3832 1119.61 27.9555C1118.34 29.5278 1116.5 30.3139 1114.09 30.3139H1111.12ZM1138.43 22.3158H1150.25V17.4965H1138.43V10.3803H1152.26V5.3969H1132.28V35.2563H1152.3V30.3139H1138.43V22.3158ZM1162.06 24.3256H1166.96L1172.56 35.2563H1179.16V34.9692L1172.7 22.767C1174.49 21.9604 1175.83 20.8803 1176.7 19.5268C1177.59 18.1596 1178.03 16.4574 1178.03 14.4203C1178.03 11.5492 1177.08 9.32756 1175.16 7.7553C1173.25 6.18303 1170.53 5.3969 1167 5.3969H1155.91V35.2563H1162.06V24.3256ZM1167.02 19.3422H1162.06V10.3803H1167C1168.66 10.3803 1169.88 10.7836 1170.67 11.5903C1171.48 12.3969 1171.88 13.5043 1171.88 14.9125C1171.88 16.2934 1171.46 17.3803 1170.61 18.1733C1169.76 18.9526 1168.57 19.3422 1167.02 19.3422ZM1053.74 63.1039H1064.52L1066.59 69.2563H1073.14L1061.96 39.3969H1056.26L1045.14 69.2563H1051.69L1053.74 63.1039ZM1062.86 58.1205H1055.4L1059.11 46.9438L1062.86 58.1205ZM1086.79 44.3803H1095.94V39.3969H1071.62V44.3803H1080.64V69.2563H1086.79V44.3803ZM1113.13 44.3803H1122.27V39.3969H1097.95V44.3803H1106.97V69.2563H1113.13V44.3803ZM1129.41 63.1039H1140.2L1142.27 69.2563H1148.81L1137.63 39.3969H1131.93L1120.82 69.2563H1127.36L1129.41 63.1039ZM1138.54 58.1205H1131.07L1134.78 46.9438L1138.54 58.1205ZM1171.02 66.8979C1173.17 65.0522 1174.36 62.5229 1174.59 59.31H1168.44C1168.3 61.1283 1167.76 62.475 1166.82 63.35C1165.89 64.2113 1164.47 64.642 1162.57 64.642C1160.47 64.642 1158.92 63.8969 1157.94 62.4067C1156.97 60.9164 1156.48 58.558 1156.48 55.3315V53.0756C1156.51 49.9858 1157.03 47.7094 1158.04 46.2465C1159.06 44.7699 1160.6 44.0317 1162.65 44.0317C1164.54 44.0317 1165.94 44.4692 1166.86 45.3442C1167.79 46.2055 1168.33 47.6 1168.48 49.5278H1174.63C1174.3 46.1918 1173.08 43.601 1170.98 41.7553C1168.87 39.9096 1166.1 38.9867 1162.65 38.9867C1160.17 38.9867 1157.98 39.5746 1156.09 40.7504C1154.22 41.9125 1152.78 43.5873 1151.76 45.7748C1150.75 47.9623 1150.25 50.4916 1150.25 53.3627V55.1879C1150.25 59.686 1151.34 63.227 1153.53 65.811C1155.73 68.3813 1158.74 69.6664 1162.57 69.6664C1166.07 69.6664 1168.89 68.7436 1171.02 66.8979ZM1184.78 60.725L1187.98 57.2797L1195.65 69.2563H1202.97L1192.06 52.6655L1202.66 39.3969H1195.1L1187.49 49.2201L1184.78 52.9321V39.3969H1178.63V69.2563H1184.78V60.725Z" fill="#FF0000"/>
<path fill-rule="evenodd" clip-rule="evenodd" d="M552.293 75H848.481L882.587 0H586.399L552.293 75ZM615.266 25.0639V5.3969H609.093V25.269C609.038 28.9057 607.281 30.724 603.822 30.724C602.168 30.724 600.869 30.2797 599.926 29.391C598.996 28.4887 598.531 27.06 598.531 25.1049V5.3969H592.379V25.2895C592.42 28.516 593.466 31.0522 595.517 32.8979C597.567 34.7436 600.336 35.6664 603.822 35.6664C607.363 35.6664 610.152 34.7162 612.189 32.8158C614.24 30.9155 615.266 28.3315 615.266 25.0639ZM638.439 35.2563H644.592V5.3969H638.46V25.0844L626.463 5.3969H620.311V35.2563H626.463V15.6098L638.439 35.2563ZM649.965 5.3969V35.2563H659.214C661.825 35.2426 664.17 34.641 666.248 33.4516C668.326 32.2621 669.933 30.5873 671.067 28.4272C672.216 26.267 672.79 23.7992 672.79 21.0238V19.6498C672.79 16.8744 672.209 14.3998 671.047 12.226C669.885 10.0385 668.265 8.35686 666.187 7.18108C664.122 5.99162 661.777 5.3969 659.152 5.3969H649.965ZM656.117 30.3139V10.3803H659.152C661.572 10.3803 663.411 11.1664 664.669 12.7387C665.927 14.2973 666.556 16.5942 666.556 19.6293V21.2084C666.528 24.1342 665.879 26.3832 664.607 27.9555C663.336 29.5278 661.497 30.3139 659.091 30.3139H656.117ZM683.434 22.3158H695.246V17.4965H683.434V10.3803H697.256V5.3969H677.281V35.2563H697.297V30.3139H683.434V22.3158ZM707.059 24.3256H711.96L717.559 35.2563H724.162V34.9692L717.702 22.767C719.493 21.9604 720.826 20.8803 721.701 19.5268C722.59 18.1596 723.034 16.4574 723.034 14.4203C723.034 11.5492 722.077 9.32756 720.163 7.7553C718.249 6.18303 715.528 5.3969 712.001 5.3969H700.906V35.2563H707.059V24.3256ZM712.021 19.3422H707.059V10.3803H712.001C713.655 10.3803 714.879 10.7836 715.672 11.5903C716.479 12.3969 716.882 13.5043 716.882 14.9125C716.882 16.2934 716.458 17.3803 715.61 18.1733C714.763 18.9526 713.566 19.3422 712.021 19.3422ZM598.736 63.1039H609.523L611.595 69.2563H618.137L606.96 39.3969H601.259L590.144 69.2563H596.686L598.736 63.1039ZM607.862 58.1205H600.397L604.109 46.9438L607.862 58.1205ZM631.795 44.3803H640.941V39.3969H616.619V44.3803H625.643V69.2563H631.795V44.3803ZM658.127 44.3803H667.273V39.3969H642.951V44.3803H651.975V69.2563H658.127V44.3803ZM674.41 63.1039H685.197L687.269 69.2563H693.811L682.634 39.3969H676.933L665.817 69.2563H672.359L674.41 63.1039ZM683.536 58.1205H676.071L679.783 46.9438L683.536 58.1205ZM716.021 66.8979C718.167 65.0522 719.356 62.5229 719.589 59.31H713.437C713.3 61.1283 712.76 62.475 711.816 63.35C710.887 64.2113 709.472 64.642 707.571 64.642C705.466 64.642 703.921 63.8969 702.937 62.4067C701.966 60.9164 701.48 58.558 701.48 55.3315V53.0756C701.508 49.9858 702.027 47.7094 703.039 46.2465C704.064 44.7699 705.603 44.0317 707.653 44.0317C709.54 44.0317 710.941 44.4692 711.857 45.3442C712.787 46.2055 713.327 47.6 713.478 49.5278H719.63C719.302 46.1918 718.085 43.601 715.979 41.7553C713.874 39.9096 711.099 38.9867 707.653 38.9867C705.165 38.9867 702.978 39.5746 701.091 40.7504C699.218 41.9125 697.775 43.5873 696.764 45.7748C695.752 47.9623 695.246 50.4916 695.246 53.3627V55.1879C695.246 59.686 696.34 63.227 698.527 65.811C700.729 68.3813 703.743 69.6664 707.571 69.6664C711.071 69.6664 713.888 68.7436 716.021 66.8979ZM729.781 60.725L732.98 57.2797L740.65 69.2563H747.972L737.062 52.6655L747.664 39.3969H740.097L732.488 49.2201L729.781 52.9321V39.3969H723.629V69.2563H729.781V60.725Z" fill="#FF0000"/>
<path d="M1350.02 75H1324.64L1358.75 0H1384.02L1350.02 75Z" fill="#FF0000"/>
<path d="M1394.48 75H1369.1L1403.1 0H1428.48L1394.48 75Z" fill="#FF0000"/>
<path d="M1438.83 75H1413.56L1447.56 0H1472.94L1438.83 75Z" fill="#FF0000"/>
<path d="M939.637 75H914.261L948.265 0H973.641L939.637 75Z" fill="#FF0000"/>
<path d="M895.179 75H869.803L903.908 0H929.182L895.179 75Z" fill="#FF0000"/>
<path d="M983.994 75H958.72L992.723 0H1018.1L983.994 75Z" fill="#FF0000"/>
<path d="M484.799 75H459.423L493.427 0H518.803L484.799 75Z" fill="#FF0000"/>
<path d="M440.341 75H414.965L449.07 0H474.345L440.341 75Z" fill="#FF0000"/>
<path d="M529.156 75H503.78L537.886 0H563.261L529.156 75Z" fill="#FF0000"/>
<path d="M30.852 75H5.47607L39.4798 0H64.8558L30.852 75Z" fill="#FF0000"/>
<path d="M-13.6065 75H-38.9824L-4.87716 0H20.3973L-13.6065 75Z" fill="#FF0000"/>
<path d="M75.2089 75H49.833L83.9383 0H109.314L75.2089 75Z" fill="#FF0000"/>
</g>
<defs>
<clipPath id="clip0">
<rect width="1512.83" height="75" fill="white" transform="translate(-39)"/>
</clipPath>
</defs>
</svg>
